<svg width="628" height="568" viewBox="0 0 628 568" fill="none" xmlns="http://www.w3.org/2000/svg">
<path d="M238.329 392.56C241.402 390.953 242.939 388.35 242.939 384.75C242.806 256.69 242.729 128.75 242.709 0.93003C242.709 0.403363 242.879 0.336696 243.219 0.730029L301.859 68.62C302.389 69.2394 302.679 70.0267 302.679 70.84C302.666 191.307 302.672 311.943 302.699 432.75C302.709 445.5 301.859 454.04 289.459 458.42C280.589 461.55 273.849 457.27 267.819 451.23C216.426 399.677 164.959 348.19 113.419 296.77C111.052 294.41 109.416 291.99 108.509 289.51C106.249 283.36 110.479 276.41 115.999 274.32C117.766 273.647 121.439 273.32 127.019 273.34C151.906 273.413 176.799 273.51 201.699 273.63C202.579 273.637 203.349 273.663 204.009 273.71C204.182 273.723 204.344 273.801 204.461 273.93C204.579 274.058 204.642 274.226 204.639 274.4C204.432 300.36 204.466 326.31 204.739 352.25C204.829 360.58 207.039 365.56 212.789 372.05C217.496 377.363 222.472 382.41 227.719 387.19C230.369 389.61 234.319 394.66 238.329 392.56Z" fill="#2D4C69"/>
<path d="M500.699 273.35C508.749 273.29 515.789 275.55 516.929 284.52C517.639 290.1 513.999 294.88 509.769 299.07C459.909 348.543 410.209 398.177 360.669 447.97C352.769 455.91 344.959 463.26 332.959 457.46C323.299 452.79 322.409 444.93 322.419 434.17C322.459 313.263 322.472 192.357 322.459 71.45C322.459 69.6 323.249 68.5 324.369 67.2C343.576 44.9734 362.756 22.7867 381.909 0.640024C382.162 0.340024 382.289 0.38669 382.289 0.780024C382.282 128.9 382.296 257.097 382.329 385.37C382.329 390.89 387.579 395.68 392.739 391.3C399.479 385.587 406.002 379.157 412.309 372.01C418.649 364.81 420.329 359.57 420.389 350.25C420.536 324.997 420.566 299.727 420.479 274.44C420.479 274.313 420.504 274.187 420.552 274.07C420.601 273.953 420.672 273.847 420.761 273.758C420.85 273.668 420.956 273.598 421.073 273.55C421.189 273.503 421.314 273.479 421.439 273.48C447.779 273.58 474.199 273.537 500.699 273.35Z" fill="#A69154"/>
<path d="M200.949 16.77C158.959 16.76 116.929 16.58 74.9391 16.89C66.3458 16.95 60.0558 17.4633 56.0691 18.43C35.9091 23.33 20.3091 40.4 16.6891 60.56C16.0424 64.1867 15.7191 70.8333 15.7191 80.5C15.7125 217 15.7125 353.5 15.7191 490C15.7191 499.32 16.1391 505.953 16.9791 509.9C21.2191 529.82 37.1391 546.11 57.0591 550.63C61.0858 551.543 67.7158 552.007 76.9491 552.02C150.529 552.1 224.112 552.09 297.699 551.99C303.049 551.98 306.059 558.51 304.219 563C302.499 567.21 299.179 567.75 294.689 567.75C216.362 567.743 138.032 567.743 59.6991 567.75C54.5124 567.75 48.2058 566.253 40.7791 563.26C16.1991 553.37 -0.0109109 530.66 -0.000910903 504C0.0590891 361.333 0.0790867 218.667 0.0590867 76C0.0590867 66.6933 0.399106 60.0433 1.07911 56.05C5.68911 29.09 27.1491 7.39999 54.0391 2.22999C58.2791 1.41666 64.9191 1.00999 73.9591 1.00999C116.539 1.00332 159.119 0.996657 201.699 0.98999C211.289 0.98999 211.929 16.78 200.949 16.77Z" fill="#A69154"/>
<path d="M608.869 516.7C611.239 510.28 611.949 504.19 611.949 496.66C611.956 357.027 611.956 217.39 611.949 77.75C611.949 68.47 611.492 61.84 610.579 57.86C606.069 38.25 590.149 22.71 570.759 18.2C566.706 17.2533 560.629 16.7767 552.529 16.77C511.182 16.75 469.832 16.7467 428.479 16.76C425.672 16.7667 423.576 16.33 422.189 15.45C414.939 10.88 419.189 0.960012 427.439 0.950012C469.859 0.950012 512.279 0.956679 554.699 0.970013C563.492 0.970013 570.122 1.44001 574.589 2.38001C601.089 7.91001 621.939 29.23 626.709 55.98C628.339 65.12 627.869 76.95 627.869 87.25C627.856 222.543 627.846 357.837 627.839 493.13C627.839 502.897 627.582 509.55 627.069 513.09C623.209 539.69 602.479 561.66 575.889 566.63C571.842 567.383 565.196 567.76 555.949 567.76C481.842 567.733 407.739 567.733 333.639 567.76C330.579 567.76 328.346 567.403 326.939 566.69C319.659 562.98 322.749 552.06 331.199 552.05C406.699 552.01 482.199 551.99 557.699 551.99C580.969 551.99 600.829 538.4 608.869 516.7Z" fill="#2D4C69"/>
<path d="M214.519 447.43C206.759 439.74 198.429 442.17 191.529 449.08C174.222 466.44 156.906 483.79 139.579 501.13C135.389 505.33 131.319 510.17 127.119 514.67C121.699 520.48 117.089 523.52 108.979 523.55C94.9524 523.61 80.9324 523.607 66.919 523.54C59.699 523.5 54.1291 522.92 51.2491 516.21C47.1391 506.65 55.4391 500.17 61.2891 494.34C90.9758 464.78 120.632 435.187 150.259 405.56C160.899 394.92 175.569 391.1 188.919 399.77C192.566 402.143 195.922 404.873 198.989 407.96C232.462 441.647 265.989 475.287 299.569 508.88C303.102 512.407 303.676 515.937 301.289 519.47C296.579 526.45 290.009 522.85 285.439 518.27C251.026 483.797 227.386 460.183 214.519 447.43Z" fill="#2D4C69"/>
<path d="M427.769 406.56C442.559 391.79 460.379 390.93 475.289 405.9C506.602 437.34 537.966 468.73 569.379 500.07C574.269 504.94 576.919 510.84 573.199 517.38C570.866 521.48 566.862 523.51 561.189 523.47C555.442 523.43 541.982 523.45 520.809 523.53C510.509 523.57 504.659 522.62 498.269 515.16C494.062 510.253 488.629 504.443 481.969 497.73C466.076 481.703 450.132 465.73 434.139 449.81C425.029 440.75 417.779 440.19 408.569 449.37C385.169 472.717 361.776 496.073 338.389 519.44C334.219 523.6 326.869 525.41 323.479 519.18C321.532 515.613 322.099 512.287 325.179 509.2C359.352 474.967 393.549 440.753 427.769 406.56Z" fill="#A69154"/>
</svg>
