<svg width="1753" height="495" viewBox="0 0 1753 495" fill="none" xmlns="http://www.w3.org/2000/svg">
<path d="M437.31 125.586L416.04 106.096C415.753 105.836 415.603 105.513 415.59 105.126C415.37 100.046 418.75 94.6162 422.36 91.2762C432.54 81.8662 446.43 78.8262 459.84 81.0862C471.88 83.1062 485.06 90.6462 487.49 103.886C487.566 104.315 487.533 104.756 487.393 105.167C487.253 105.578 487.011 105.946 486.69 106.236L465.23 125.576C464.037 126.65 464.243 127.19 465.85 127.196C480.997 127.223 495.99 127.236 510.83 127.236C519.25 127.226 523.89 125.666 523.93 116.436C523.977 103.983 523.993 91.5228 523.98 79.0562C523.97 71.1662 522.72 63.6462 521.69 55.8662C521.66 55.6499 521.712 55.4301 521.836 55.2504C521.96 55.0707 522.147 54.9443 522.36 54.8962L537.49 51.3562C537.803 51.2829 537.96 51.4096 537.96 51.7362C537.953 71.4362 537.957 91.1329 537.97 110.826C537.97 119.493 537.457 125.19 536.43 127.916C532.57 138.126 523.58 139.456 512.93 139.476C496.497 139.51 480.063 139.506 463.63 139.466C461.217 139.46 457.873 138.616 453.6 136.936C452.287 136.423 450.93 136.22 449.53 136.326C446.05 136.586 437.33 135.446 435.67 138.956C435.598 139.109 435.484 139.237 435.34 139.328C435.197 139.418 435.03 139.466 434.86 139.466C420.367 139.52 406.207 139.513 392.38 139.446C388.973 139.426 385.507 138.113 381.98 135.506C381.693 135.293 381.437 135.323 381.21 135.596C373.777 144.31 364.583 148.1 353.63 146.966C347.623 146.34 342.88 143.193 339.4 137.526C339.321 137.398 339.199 137.303 339.056 137.257C338.913 137.211 338.759 137.218 338.62 137.276C335.24 138.743 332.66 139.48 330.88 139.486C274.847 139.5 218.817 139.5 162.79 139.486C161.17 139.486 159.44 138.996 157.73 138.746C157.37 138.693 157.17 138.846 157.13 139.206C155.26 155.696 143.34 165.296 128.19 169.256C127.617 169.403 127.183 169.223 126.89 168.716L124.68 164.916C124.367 164.383 124.51 164.033 125.11 163.866C133.01 161.676 139.33 156.036 141.95 148.856C143.057 145.816 143.617 140.323 143.63 132.376C143.65 121.166 144.3 109.416 142.67 98.3362C142.077 94.3162 141.467 90.3329 140.84 86.3862C140.81 86.2064 140.851 86.022 140.953 85.8712C141.055 85.7205 141.212 85.6148 141.39 85.5762L156.87 82.1862C156.933 82.1728 156.998 82.1736 157.06 82.1884C157.122 82.2033 157.18 82.2319 157.23 82.2722C157.28 82.3124 157.32 82.3633 157.348 82.4211C157.376 82.4789 157.39 82.5422 157.39 82.6062C157.39 93.6729 157.397 104.79 157.41 115.956C157.42 121.886 159.93 127.216 166.63 127.216C218.777 127.236 270.923 127.236 323.07 127.216C335.67 127.206 333.37 121.536 335.06 112.206C339.79 85.9662 368.77 83.7462 389.15 90.1262C389.463 90.2195 389.593 90.4295 389.54 90.7562C388.367 98.3162 387.86 107.126 388.02 117.186C388.16 125.866 392.87 127.216 400.73 127.226C412.557 127.24 424.54 127.23 436.68 127.196C438.26 127.19 438.47 126.653 437.31 125.586ZM452 121.866L471.77 103.576C471.965 103.396 472.101 103.162 472.162 102.903C472.223 102.645 472.204 102.374 472.11 102.126C468.81 93.4962 456.43 91.8162 448.69 92.3962C441.81 92.9162 434.66 95.2962 431.09 101.776C430.922 102.085 430.862 102.441 430.92 102.789C430.978 103.137 431.151 103.456 431.41 103.696L451.17 121.866C451.443 122.12 451.72 122.12 452 121.866ZM350.01 108.336C348.13 115.806 347.96 125.466 352.77 131.846C358.22 139.086 368.41 135.666 373.69 129.916C373.89 129.696 373.993 129.433 374 129.126C374.06 121.533 374.06 113.933 374 106.326C373.98 103.526 373.37 100.756 373.02 97.9562C372.973 97.6095 372.783 97.3896 372.45 97.2962C362.83 94.7362 352.66 97.7362 350.01 108.336Z" fill="#333638"/>
<path d="M103.2 53.1462L119.59 51.8662C120.01 51.8328 120.203 52.0228 120.17 52.4362C119.68 59.5962 118.78 66.8562 118.76 73.8162C118.693 95.5428 118.71 117.269 118.81 138.996C118.81 139.323 118.647 139.486 118.32 139.486H105.38C105 139.486 104.813 139.296 104.82 138.916C104.893 116.603 104.91 94.3662 104.87 72.2062C104.863 69.2062 104.143 63.0562 102.71 53.7562C102.657 53.3762 102.82 53.1729 103.2 53.1462Z" fill="#333638"/>
<path d="M570.84 52.3462C570.57 59.2262 569.46 66.0662 569.44 72.9662C569.38 94.9662 569.377 116.953 569.43 138.926C569.43 139.077 569.371 139.222 569.266 139.329C569.161 139.436 569.019 139.496 568.87 139.496L555.87 139.476C555.764 139.476 555.662 139.434 555.587 139.359C555.512 139.284 555.47 139.182 555.47 139.076C555.563 117.803 555.577 96.5195 555.51 75.2262C555.49 67.9262 554.41 60.9061 553.47 53.6761C553.423 53.3361 553.57 53.1528 553.91 53.1262L570.34 51.8562C570.693 51.8295 570.86 51.9929 570.84 52.3462Z" fill="#333638"/>
<path d="M1008.51 126.786C1008.47 126.823 1008.45 126.87 1008.44 126.92C1008.43 126.97 1008.44 127.022 1008.46 127.069C1008.48 127.116 1008.51 127.156 1008.56 127.184C1008.6 127.212 1008.65 127.227 1008.7 127.226H1103.86C1103.93 127.226 1104.01 127.197 1104.06 127.144C1104.11 127.092 1104.14 127.02 1104.14 126.946C1104.13 121.986 1104.13 117.02 1104.14 112.046C1104.15 106.706 1103.7 103.03 1102.79 101.016C1099.61 93.9962 1090.77 92.1762 1083.63 92.1262C1066.56 91.9862 1049.52 91.9062 1032.51 91.8862C1031.68 91.8862 1031.57 91.6029 1032.18 91.0362C1045.37 78.8162 1057.91 65.9662 1069.81 52.4862C1070.03 52.2329 1070.31 52.1062 1070.65 52.1062H1089.25C1089.8 52.1062 1089.86 52.2761 1089.42 52.6161C1084.03 56.8361 1078.63 61.1495 1073.21 65.5562C1068.15 69.6862 1063.48 74.5862 1058.76 79.1362C1057.99 79.8762 1058.14 80.2429 1059.21 80.2362C1069.08 80.1295 1078.72 80.1595 1088.13 80.3262C1098.76 80.5062 1112.98 85.5462 1116.73 96.8262C1117.59 99.4328 1118.02 104.383 1118.01 111.676C1118 120.776 1118 129.876 1118.01 138.976C1118.01 139.316 1117.84 139.486 1117.5 139.486C1077.84 139.493 1038.14 139.493 998.41 139.486C992.53 139.486 987.3 137.536 981.38 138.386C978.28 138.826 975.14 139.476 972.02 139.476C911.993 139.503 851.963 139.503 791.93 139.476C781.23 139.466 772.73 137.976 768.81 127.736C767.857 125.236 767.373 121.326 767.36 116.006C767.347 103.826 767.35 91.6495 767.37 79.4762C767.38 71.5962 766.13 64.2262 765.02 56.4862C764.99 56.2845 765.039 56.0787 765.155 55.91C765.272 55.7414 765.449 55.6221 765.65 55.5762L780.83 52.1862C781.183 52.1128 781.36 52.2561 781.36 52.6161C781.347 72.9428 781.353 93.2462 781.38 113.526C781.39 120.866 782.31 127.226 790.87 127.226C847.463 127.226 904.07 127.226 960.69 127.226C960.747 127.226 960.802 127.21 960.85 127.178C960.897 127.147 960.934 127.103 960.957 127.05C960.979 126.998 960.986 126.941 960.975 126.885C960.965 126.829 960.939 126.777 960.9 126.736C954.47 120.236 952.85 110.466 955.24 101.836C958.25 90.9362 967.4 83.9762 978.62 82.4862C987.01 81.3762 995.89 82.3062 1002.99 86.7262C1016.47 95.1262 1019.71 114.896 1008.51 126.786ZM970.78 119.326C973.45 127.726 983.06 131.126 990.66 127.626C1004.78 121.126 1003.65 90.7162 984.85 91.3062C969.34 91.7962 967.03 107.496 970.78 119.326Z" fill="#333638"/>
<path d="M625.972 68.5558C630.727 68.5144 634.549 64.8051 634.51 60.271C634.47 55.7369 630.583 52.095 625.828 52.1365C621.073 52.178 617.251 55.8872 617.29 60.4213C617.33 64.9554 621.217 68.5973 625.972 68.5558Z" fill="#333638"/>
<path d="M647.91 68.583C652.664 68.7157 656.62 65.1401 656.747 60.5966C656.874 56.053 653.123 52.2622 648.37 52.1294C643.617 51.9966 639.66 55.5722 639.533 60.1158C639.406 64.6593 643.157 68.4502 647.91 68.583Z" fill="#333638"/>
<path d="M985.039 68.5534C989.754 68.2898 993.37 64.3971 993.117 59.8589C992.863 55.3207 988.835 51.8554 984.121 52.119C979.406 52.3826 975.79 56.2753 976.043 60.8135C976.297 65.3517 980.325 68.817 985.039 68.5534Z" fill="#333638"/>
<path d="M614.69 86.5162C621.56 78.9662 631.66 76.7862 641.5 77.8762C661.89 80.1462 669 99.0662 664.82 117.036C661.56 131.056 650.99 139.426 636.47 139.536C625.14 139.616 615.35 135.206 610.28 125.086C604.49 113.566 605.69 96.3962 614.69 86.5162ZM638.64 130.136C645.09 129.186 648.76 124.096 650 118.086C651.86 109.066 652.29 89.8162 640.15 87.2262C629.11 84.8662 623.58 91.9762 622.1 102.096C620.49 113.126 622.14 132.576 638.64 130.136Z" fill="#333638"/>
<path d="M39.57 169.086C17.36 167.016 6.10001 151.886 5.70001 130.076C5.54001 120.956 5.44999 111.79 5.42999 102.576C5.42997 102.448 5.48024 102.325 5.56998 102.233C5.65972 102.142 5.78179 102.089 5.91 102.086L18.62 102.036C19.02 102.03 19.22 102.23 19.22 102.636C19.18 110.436 19.2033 118.206 19.29 125.946C19.4 136.286 21.39 146.806 28.72 153.886C35.93 160.846 47.96 162.846 57.11 158.496C67.21 153.696 72.86 141.936 73.4 130.946C73.56 127.613 73.5933 120.66 73.5 110.086C73.42 102.206 72.06 94.5862 70.99 86.7562C70.9233 86.2495 71.14 85.9395 71.64 85.8262L86.89 82.2762C86.9346 82.2674 86.9806 82.2685 87.0247 82.2794C87.0688 82.2904 87.11 82.3109 87.1453 82.3396C87.1806 82.3682 87.2091 82.4042 87.229 82.4451C87.2488 82.486 87.2594 82.5307 87.26 82.5762C87.28 98.7095 87.28 114.883 87.26 131.096C87.22 158.216 64.53 171.416 39.57 169.086Z" fill="#333638"/>
<path d="M46.6273 110.611C51.3072 110.242 54.8113 106.262 54.4538 101.719C54.0963 97.177 50.0126 93.7933 45.3327 94.1616C40.6527 94.5299 37.1487 98.5108 37.5062 103.053C37.8637 107.595 41.9473 110.979 46.6273 110.611Z" fill="#333638"/>
<path d="M705.09 127.166C710.623 127.286 716.163 127.303 721.71 127.216C726.15 127.146 731.27 126.186 736.15 125.896C736.317 125.887 736.484 125.918 736.637 125.988C736.79 126.058 736.925 126.163 737.03 126.296L747.14 138.946C747.18 138.995 747.206 139.054 747.213 139.116C747.221 139.179 747.21 139.243 747.183 139.299C747.156 139.356 747.112 139.404 747.059 139.437C747.005 139.47 746.943 139.487 746.88 139.486L677.9 139.496C677.56 139.496 677.387 139.323 677.38 138.976V127.716C677.38 127.39 677.543 127.226 677.87 127.226H689.91C690.357 127.226 690.573 127.003 690.56 126.556C690.46 122.816 690.813 119.04 691.62 115.226C695.38 97.4462 712.89 91.2961 728.72 97.3161C731.98 98.5561 735.24 100.249 738.5 102.396C738.693 102.523 738.76 102.699 738.7 102.926L736.27 111.816C736.259 111.855 736.238 111.89 736.21 111.92C736.182 111.949 736.147 111.971 736.109 111.983C736.071 111.996 736.03 111.999 735.99 111.993C735.95 111.986 735.912 111.97 735.88 111.946C725.55 104.286 708.3 105.056 705.26 120.036C704.82 122.196 704.583 124.386 704.55 126.606C704.543 126.966 704.723 127.153 705.09 127.166Z" fill="#333638"/>
<path d="M720.72 280.676C703.01 279.216 687.57 269.656 680.16 253.196C672.36 235.856 673.77 213.896 684.87 198.286C695.35 183.536 713.09 177.106 731.12 179.076C754.66 181.656 771.06 199.056 773.86 222.206C777.87 255.336 755.12 283.506 720.72 280.676ZM696.37 230.526C696.45 248.626 701.53 274.016 724.57 274.146C751.76 274.306 754.22 241.916 753.2 222.536C752.26 204.596 744.38 183.376 722.3 185.496C700.03 187.636 696.29 213.156 696.37 230.526Z" fill="#333638"/>
<path d="M183.68 216.546V277.516C183.68 277.612 183.642 277.703 183.575 277.771C183.507 277.838 183.415 277.876 183.32 277.876L164.94 277.826C164.393 277.826 164.12 277.556 164.12 277.016L164.11 216.926C164.11 216.246 163.77 215.906 163.09 215.906L155.54 215.926C155.485 215.926 155.43 215.915 155.379 215.894C155.328 215.873 155.282 215.842 155.243 215.803C155.204 215.764 155.173 215.718 155.152 215.667C155.131 215.616 155.12 215.561 155.12 215.506L155.15 209.756C155.15 209.639 155.195 209.528 155.276 209.445C155.357 209.363 155.466 209.316 155.58 209.316L162.9 209.346C163.753 209.353 164.17 208.929 164.15 208.076C163.66 191.236 170.93 182.466 187.55 180.406C195.99 179.356 208.06 179.726 212.71 188.336C212.8 188.503 212.829 188.697 212.792 188.884C212.756 189.072 212.656 189.242 212.51 189.366L207.44 193.686C207.1 193.973 206.8 193.936 206.54 193.576C200.58 185.186 186.65 182.846 184.57 196.106C183.797 201.06 183.51 205.263 183.71 208.716C183.73 209.096 183.933 209.286 184.32 209.286L202.81 209.246C203.063 209.246 203.193 209.373 203.2 209.626L203.23 215.526C203.23 215.8 203.09 215.936 202.81 215.936H184.29C183.883 215.936 183.68 216.14 183.68 216.546Z" fill="#333638"/>
<path d="M31.65 241.026C31.65 241.719 31.87 241.799 32.31 241.266C39.01 233.146 45.7133 225.216 52.42 217.476C57.84 211.223 64.92 208.536 73.66 209.416C74.2333 209.476 74.52 209.796 74.52 210.376L74.51 212.156C74.51 212.796 74.19 213.133 73.55 213.166C68.0434 213.453 63.5167 215.663 59.97 219.796C55.0167 225.576 50.13 231.326 45.31 237.046C45.1773 237.205 45.103 237.405 45.0993 237.613C45.0957 237.82 45.163 238.022 45.29 238.186C52.0833 246.959 58.9267 255.733 65.82 264.506C69.1 268.686 72.86 271.803 77.1 273.856C79.07 274.806 79.01 275.256 78.8 277.316C78.7792 277.501 78.7029 277.675 78.5813 277.814C78.4597 277.954 78.2987 278.052 78.12 278.096C66.92 280.966 55.69 279.366 47.83 269.766C42.6367 263.426 37.5 256.979 32.42 250.426C31.8733 249.719 31.6033 249.813 31.61 250.706L31.68 277.256C31.68 277.663 31.48 277.866 31.08 277.866L12.51 277.846C12.3933 277.846 12.2814 277.799 12.1989 277.714C12.1164 277.63 12.07 277.516 12.07 277.396C12.0633 251.689 12.05 225.959 12.03 200.206C12.02 191.506 10.26 185.716 0.309998 186.016C0.271081 186.017 0.2323 186.011 0.195953 185.997C0.159607 185.983 0.126447 185.962 0.0984497 185.935C0.0704526 185.908 0.0481847 185.875 0.0329895 185.84C0.0177943 185.804 0.00998661 185.765 0.0100098 185.726L0 181.986C0 181.806 0.0933321 181.713 0.279999 181.706C11.2867 181.513 18.2934 181.54 21.3 181.786C29.72 182.476 31.36 189.816 31.44 197.076C31.6267 211.923 31.6967 226.573 31.65 241.026Z" fill="#333638"/>
<path d="M288.73 220.626L284.32 182.126C284.313 182.067 284.319 182.007 284.336 181.95C284.354 181.893 284.384 181.841 284.424 181.796C284.464 181.752 284.512 181.716 284.567 181.692C284.621 181.668 284.68 181.656 284.74 181.656H303.37C303.43 181.656 303.489 181.668 303.543 181.692C303.598 181.716 303.646 181.752 303.686 181.796C303.726 181.841 303.756 181.893 303.774 181.95C303.792 182.007 303.797 182.067 303.79 182.126L299.38 220.616C299.368 220.717 299.32 220.81 299.244 220.878C299.169 220.946 299.072 220.985 298.97 220.986L289.15 220.996C289.047 220.997 288.947 220.96 288.869 220.891C288.792 220.823 288.742 220.729 288.73 220.626Z" fill="#333638"/>
<path d="M535.4 251.436L496.31 251.366C496.176 251.366 496.045 251.404 495.931 251.477C495.818 251.549 495.727 251.653 495.67 251.776L483.68 277.636C483.645 277.713 483.587 277.778 483.514 277.822C483.441 277.866 483.356 277.889 483.27 277.886L475.94 277.816C475.919 277.816 475.898 277.811 475.879 277.801C475.86 277.791 475.844 277.776 475.832 277.758C475.82 277.74 475.813 277.72 475.811 277.699C475.809 277.677 475.812 277.656 475.82 277.636L519.74 182.256C519.92 181.856 520.23 181.656 520.67 181.656L526.29 181.666C526.657 181.666 526.913 181.833 527.06 182.166C538.52 208.673 549.98 235.173 561.44 261.666C564.06 267.706 569.03 272.586 575.54 274.046C575.92 274.133 576.107 274.366 576.1 274.746V277.156C576.1 277.523 575.917 277.736 575.55 277.796C560.24 280.416 546.26 275.456 539.82 260.716C538.54 257.783 537.277 254.826 536.03 251.846C535.917 251.573 535.707 251.436 535.4 251.436ZM499.26 244.296C499.238 244.345 499.229 244.398 499.233 244.451C499.237 244.504 499.255 244.555 499.284 244.6C499.312 244.644 499.352 244.681 499.398 244.707C499.445 244.732 499.497 244.746 499.55 244.746H532.42C532.474 244.747 532.527 244.735 532.575 244.71C532.623 244.685 532.664 244.649 532.694 244.604C532.724 244.559 532.742 244.507 532.747 244.453C532.751 244.4 532.742 244.346 532.72 244.296L516.72 207.426C516.697 207.368 516.657 207.317 516.605 207.282C516.553 207.246 516.491 207.226 516.428 207.225C516.365 207.224 516.303 207.242 516.25 207.276C516.197 207.31 516.155 207.359 516.13 207.416L499.26 244.296Z" fill="#333638"/>
<path d="M581.46 201.706C581.49 193.376 580.25 185.206 569.66 186.056C569.618 186.06 569.576 186.055 569.536 186.042C569.496 186.028 569.46 186.006 569.429 185.977C569.397 185.948 569.373 185.912 569.356 185.872C569.339 185.832 569.33 185.789 569.33 185.746L569.27 181.956C569.27 181.886 569.297 181.819 569.346 181.769C569.394 181.718 569.46 181.689 569.53 181.686C576.27 181.613 583.05 181.703 589.87 181.956C600.02 182.336 600.86 191.386 600.86 199.206C600.873 225.286 600.877 251.376 600.87 277.476C600.87 277.572 600.832 277.663 600.765 277.731C600.697 277.798 600.605 277.836 600.51 277.836H581.72C581.611 277.836 581.507 277.793 581.43 277.716C581.353 277.639 581.31 277.535 581.31 277.426C581.29 252.199 581.34 226.959 581.46 201.706Z" fill="#333638"/>
<path d="M395.38 215.936L387.35 215.946C387.249 215.946 387.153 215.906 387.081 215.835C387.01 215.764 386.97 215.667 386.97 215.566L387.01 209.666C387.01 209.611 387.021 209.556 387.041 209.505C387.062 209.454 387.092 209.408 387.13 209.369C387.168 209.33 387.213 209.299 387.263 209.278C387.313 209.257 387.366 209.246 387.42 209.246L395.39 209.286C395.777 209.286 395.97 209.09 395.97 208.696L395.98 196.996C395.98 196.449 396.175 195.923 396.53 195.516L403.1 187.926C403.373 187.613 403.717 187.453 404.13 187.446L414.95 187.436C415.12 187.436 415.282 187.503 415.402 187.621C415.522 187.739 415.59 187.899 415.59 188.066V208.616C415.59 208.8 415.662 208.977 415.791 209.108C415.921 209.239 416.096 209.314 416.28 209.316L431.39 209.336C431.817 209.336 432.03 209.546 432.03 209.966L432.07 215.216C432.07 215.309 432.052 215.402 432.017 215.488C431.981 215.574 431.93 215.652 431.865 215.718C431.8 215.784 431.723 215.836 431.638 215.872C431.553 215.908 431.462 215.926 431.37 215.926H416.13C415.757 215.926 415.57 216.113 415.57 216.486C415.53 231.74 415.587 246.976 415.74 262.196C415.773 265.616 416.49 268.366 417.89 270.446C421.03 275.096 430.66 271.676 434.36 269.326C434.953 268.953 435.407 269.08 435.72 269.706L436.93 272.106C437.263 272.773 437.12 273.316 436.5 273.736C428.873 278.883 420.307 280.456 410.8 278.456C398.56 275.876 395.7 265.946 395.84 254.956C396.007 242.136 396.037 229.313 395.93 216.486C395.93 216.12 395.747 215.936 395.38 215.936Z" fill="#333638"/>
<path d="M125.92 237.146C126.27 228.826 124.79 216.676 114.64 214.866C106.82 213.473 101.357 216.079 98.25 222.686C97.69 223.886 97.28 225.706 96.8 227.166C96.7 227.48 96.4867 227.633 96.16 227.626L89.1 227.576C88.7333 227.569 88.5367 227.383 88.51 227.016C87.79 217.436 90.81 211.106 100.71 209.096C123.55 204.466 145.46 210.406 145.51 237.706C145.53 250.993 145.563 264.203 145.61 277.336C145.61 277.471 145.556 277.601 145.461 277.697C145.365 277.792 145.235 277.846 145.1 277.846H133.23C132.863 277.846 132.567 277.703 132.34 277.416L127.85 271.716C127.767 271.612 127.662 271.527 127.541 271.47C127.421 271.413 127.288 271.384 127.155 271.386C127.022 271.388 126.891 271.421 126.772 271.481C126.653 271.542 126.55 271.629 126.47 271.736C119.3 281.556 99.61 281.236 90.66 274.646C83.92 269.676 82.44 262.736 83.57 254.696C85.97 237.696 113.14 237.736 125.37 237.676C125.723 237.669 125.907 237.493 125.92 237.146ZM125.55 244.316C118.55 244.206 107.22 244.936 104.49 253.216C102.77 258.416 102.87 267.346 108.15 270.596C114.06 274.226 121.59 270.446 124.78 264.876C125.553 263.516 125.94 261.806 125.94 259.746C125.94 254.739 125.947 249.736 125.96 244.736C125.96 244.627 125.917 244.521 125.841 244.443C125.764 244.364 125.66 244.319 125.55 244.316Z" fill="#333638"/>
<path d="M251.77 237.236C251.93 225.356 249.23 211.796 233.35 214.946C229.09 215.793 226.067 218.266 224.28 222.366C223.447 224.293 223.013 225.626 222.98 226.366C222.94 227.239 222.483 227.676 221.61 227.676H215.59C214.717 227.676 214.273 227.243 214.26 226.376C214.12 217.526 216.33 211.416 225.68 209.296C235.78 206.996 251.79 206.586 260.54 213.056C268.04 218.616 271.07 226.846 271.18 235.956C271.34 249.783 271.42 263.636 271.42 277.516C271.42 277.609 271.383 277.698 271.318 277.764C271.252 277.829 271.163 277.866 271.07 277.866H259.1C258.733 277.866 258.437 277.723 258.21 277.436L253.63 271.636C253.557 271.545 253.465 271.472 253.36 271.422C253.254 271.372 253.139 271.346 253.023 271.347C252.906 271.348 252.791 271.376 252.687 271.428C252.583 271.479 252.491 271.554 252.42 271.646C244.85 281.336 228.89 280.856 218.86 276.056C212.92 273.216 209.68 267.476 209.02 260.926C206.71 238.096 235.71 237.666 251.22 237.776C251.587 237.776 251.77 237.596 251.77 237.236ZM229.65 255.816C228.67 260.746 229.49 267.796 234.08 270.716C239.79 274.336 247.62 270.156 250.64 264.916C251.427 263.536 251.827 261.803 251.84 259.716C251.867 254.723 251.863 249.736 251.83 244.756C251.83 244.649 251.788 244.546 251.714 244.47C251.639 244.393 251.537 244.349 251.43 244.346C242.55 244.106 231.78 245.156 229.65 255.816Z" fill="#333638"/>
<path d="M356.32 237.266C356.94 225.756 353.63 212.366 339.08 214.486C332.37 215.466 328.68 220.786 327.43 227.036C327.39 227.225 327.287 227.395 327.137 227.515C326.987 227.636 326.801 227.7 326.61 227.696L319.41 227.596C319.275 227.596 319.145 227.542 319.049 227.447C318.954 227.351 318.9 227.221 318.9 227.086C318.89 217.316 320.69 211.346 331.12 209.116C340.327 207.143 349.163 207.253 357.63 209.446C369.86 212.606 376.05 224.536 376.07 237.206C376.09 250.453 376.08 263.776 376.04 277.176C376.04 277.354 375.97 277.524 375.847 277.65C375.723 277.776 375.555 277.846 375.38 277.846H363.74C363.568 277.846 363.399 277.807 363.245 277.733C363.091 277.658 362.956 277.55 362.85 277.416L358.24 271.566C358.178 271.486 358.099 271.422 358.008 271.377C357.918 271.332 357.818 271.308 357.717 271.307C357.616 271.306 357.517 271.328 357.425 271.371C357.334 271.414 357.254 271.478 357.19 271.556C349.13 281.436 332.61 281.156 322.39 275.436C317.643 272.776 314.84 268.543 313.98 262.736C310.36 238.206 338.98 237.646 355.76 237.786C356.113 237.793 356.3 237.62 356.32 237.266ZM335.28 252.636C333.35 257.586 333.33 265.116 336.96 269.326C342.1 275.286 352.05 270.626 355.24 264.986C356.053 263.553 356.47 261.766 356.49 259.626C356.543 254.686 356.533 249.736 356.46 244.776C356.46 244.423 356.283 244.253 355.93 244.266C348.98 244.456 338.39 244.676 335.28 252.636Z" fill="#333638"/>
<path d="M848.31 215.666C852.15 211.86 856.587 209.476 861.62 208.516C869.53 207.016 879.81 207.746 886.28 212.326C893.48 217.416 895.5 226.186 895.51 234.706C895.523 248.953 895.51 263.1 895.47 277.146C895.47 277.332 895.396 277.51 895.265 277.641C895.134 277.772 894.956 277.846 894.77 277.846L876.87 277.816C876.743 277.816 876.616 277.791 876.499 277.743C876.381 277.695 876.274 277.624 876.184 277.535C876.094 277.446 876.023 277.34 875.974 277.224C875.925 277.107 875.9 276.982 875.9 276.856C875.96 262.416 875.94 247.95 875.84 233.456C875.79 225.656 873.86 215.936 864.39 215.206C859.663 214.84 855.37 216.516 851.51 220.236C851.29 220.443 851.227 220.693 851.32 220.986C852.68 225.073 853.367 229.563 853.38 234.456C853.407 248.796 853.423 263.043 853.43 277.196C853.43 277.288 853.412 277.378 853.377 277.463C853.342 277.547 853.291 277.623 853.227 277.688C853.163 277.752 853.087 277.802 853.003 277.837C852.92 277.871 852.83 277.888 852.74 277.886L834.65 277.826C834.546 277.825 834.444 277.803 834.348 277.763C834.253 277.723 834.167 277.664 834.094 277.591C834.022 277.517 833.965 277.431 833.926 277.335C833.888 277.24 833.869 277.139 833.87 277.036C833.97 261.983 833.907 246.873 833.68 231.706C833.48 218.486 823.96 208.996 811.7 219.576C811.493 219.75 811.39 219.97 811.39 220.236V277.286C811.39 277.686 811.193 277.886 810.8 277.886L792.39 277.826C792.244 277.826 792.104 277.767 792.001 277.662C791.898 277.557 791.84 277.415 791.84 277.266C791.813 260.486 791.81 243.633 791.83 226.706C791.84 218.566 789.64 213.916 780.76 213.656C780.18 213.636 779.887 213.336 779.88 212.756L779.84 210.236C779.827 209.676 780.1 209.393 780.66 209.386C786.06 209.273 791.433 209.293 796.78 209.446C800.73 209.556 805.27 210.836 807.35 214.486C807.403 214.578 807.476 214.657 807.563 214.718C807.65 214.779 807.748 214.821 807.852 214.84C807.956 214.859 808.062 214.855 808.164 214.829C808.265 214.802 808.36 214.753 808.44 214.686C819.86 205.176 836.56 205.666 847.52 215.676C847.787 215.923 848.05 215.92 848.31 215.666Z" fill="#333638"/>
<path d="M931.93 214.326C941.37 206.936 960.05 203.386 965.98 217.046C966.026 217.151 966.035 217.268 966.006 217.379C965.977 217.489 965.911 217.587 965.82 217.656L958.92 222.796C958.802 222.881 958.656 222.917 958.513 222.897C958.369 222.876 958.239 222.801 958.15 222.686C952.41 215.316 943.08 216.536 935.98 220.726C935.213 221.18 934.857 221.85 934.91 222.736C936.06 240.806 935.41 259.236 935.39 277.276C935.39 277.433 935.328 277.583 935.217 277.693C935.106 277.804 934.957 277.866 934.8 277.866L916.62 277.846C916.41 277.846 916.21 277.763 916.061 277.615C915.913 277.467 915.83 277.266 915.83 277.056C915.79 260.223 915.797 243.273 915.85 226.206C915.88 218.826 913.28 213.486 904.88 213.666C904.233 213.68 903.907 213.363 903.9 212.716L903.87 210.426C903.863 209.779 904.18 209.443 904.82 209.416C911.38 209.15 917.313 209.17 922.62 209.476C926.233 209.683 929.097 211.263 931.21 214.216C931.417 214.503 931.657 214.539 931.93 214.326Z" fill="#333638"/>
<path d="M1013.65 237.236C1014.01 228.586 1012.28 215.506 1001.25 214.506C992.18 213.676 986.38 218.176 984.7 227.076C984.627 227.456 984.397 227.646 984.01 227.646L976.89 227.656C976.55 227.656 976.367 227.486 976.34 227.146C975.82 220.376 977.18 212.906 984.39 210.246C991.22 207.736 999.45 207.626 1006.63 208.006C1023.65 208.906 1033.04 220.256 1033.2 236.706C1033.33 250.253 1033.39 263.796 1033.36 277.336C1033.36 277.69 1033.18 277.866 1032.83 277.866H1021.01C1020.65 277.866 1020.36 277.723 1020.14 277.436L1015.62 271.686C1015.54 271.587 1015.44 271.506 1015.33 271.45C1015.22 271.395 1015.09 271.365 1014.97 271.364C1014.84 271.363 1014.72 271.391 1014.61 271.445C1014.49 271.499 1014.4 271.578 1014.32 271.676C1006.84 281.096 991.67 280.846 981.62 276.456C973.39 272.856 969.38 263.626 971.31 254.816C975.09 237.616 998.38 237.746 1013.12 237.746C1013.46 237.746 1013.64 237.576 1013.65 237.236ZM1013.63 260.306C1013.84 255.186 1013.86 250.046 1013.69 244.886C1013.68 244.546 1013.5 244.37 1013.16 244.356C1005.74 244.086 995.24 245.116 992.26 253.136C990.48 257.956 990.85 265.866 994.6 269.656C999.68 274.806 1008.76 270.916 1012.18 265.536C1013.07 264.15 1013.55 262.406 1013.63 260.306Z" fill="#333638"/>
<path d="M1069.27 214.226C1073.26 211.046 1077.8 209.093 1082.87 208.366C1100 205.916 1118.6 210.356 1118.89 231.466C1119.1 246.799 1119.2 262.133 1119.19 277.466C1119.19 277.713 1119.06 277.836 1118.81 277.836L1100.11 277.856C1099.98 277.856 1099.85 277.803 1099.76 277.71C1099.66 277.616 1099.61 277.489 1099.61 277.356C1099.66 263.23 1099.65 249.093 1099.59 234.946C1099.56 229.406 1099.03 224.686 1096.34 220.516C1091.56 213.106 1080.01 214.486 1073.44 218.216C1073.22 218.344 1073.03 218.529 1072.91 218.752C1072.78 218.975 1072.71 219.228 1072.71 219.486L1072.67 277.446C1072.67 277.5 1072.66 277.552 1072.64 277.602C1072.62 277.651 1072.59 277.695 1072.55 277.733C1072.51 277.77 1072.47 277.799 1072.42 277.819C1072.37 277.838 1072.32 277.848 1072.27 277.846L1053.65 277.796C1053.51 277.796 1053.37 277.74 1053.28 277.641C1053.18 277.542 1053.12 277.407 1053.12 277.266C1053.11 260.739 1053.1 244.219 1053.09 227.706C1053.08 220.006 1051.6 213.316 1042.01 213.666C1041.52 213.686 1041.27 213.449 1041.25 212.956L1041.15 210.266C1041.15 210.162 1041.16 210.059 1041.2 209.961C1041.23 209.864 1041.29 209.775 1041.36 209.699C1041.43 209.622 1041.52 209.561 1041.61 209.518C1041.7 209.474 1041.81 209.45 1041.91 209.446C1049.08 209.179 1054.98 209.176 1059.63 209.436C1063.28 209.643 1066.24 211.209 1068.53 214.136C1068.75 214.416 1069 214.446 1069.27 214.226Z" fill="#333638"/>
<path d="M660.44 232.296H619.8C619.441 232.296 619.15 232.587 619.15 232.946V245.586C619.15 245.945 619.441 246.236 619.8 246.236H660.44C660.799 246.236 661.09 245.945 661.09 245.586V232.946C661.09 232.587 660.799 232.296 660.44 232.296Z" fill="#333638"/>
<path d="M760.681 306.472C763.055 306.472 764.981 304.547 764.981 302.172C764.981 299.798 763.055 297.872 760.681 297.872C758.306 297.872 756.381 299.798 756.381 302.172C756.381 304.547 758.306 306.472 760.681 306.472Z" fill="#A69154"/>
<path d="M190.091 315.592C192.471 315.592 194.401 313.663 194.401 311.282C194.401 308.902 192.471 306.972 190.091 306.972C187.71 306.972 185.781 308.902 185.781 311.282C185.781 313.663 187.71 315.592 190.091 315.592Z" fill="#A69154"/>
<path d="M201.581 315.632C203.978 315.632 205.921 313.689 205.921 311.292C205.921 308.896 203.978 306.952 201.581 306.952C199.184 306.952 197.241 308.896 197.241 311.292C197.241 313.689 199.184 315.632 201.581 315.632Z" fill="#A69154"/>
<path d="M397.651 346.972C397.831 341.952 399.101 325.502 388.881 328.172C388.447 328.286 388.224 328.119 388.211 327.672L388.121 325.162C388.116 324.973 388.181 324.788 388.303 324.644C388.425 324.5 388.595 324.407 388.781 324.383C392.907 323.823 396.371 324.736 399.171 327.123C405.541 332.543 405.111 339.452 404.851 346.832C404.848 346.918 404.863 347.004 404.894 347.084C404.924 347.164 404.971 347.236 405.031 347.298C405.091 347.36 405.162 347.409 405.241 347.442C405.32 347.475 405.405 347.493 405.491 347.493C408.164 347.486 410.854 347.473 413.561 347.453C417.201 347.423 419.691 346.672 419.861 342.662C420.101 337.016 419.617 331.669 418.411 326.623C418.396 326.561 418.393 326.497 418.404 326.434C418.414 326.371 418.436 326.311 418.47 326.257C418.503 326.203 418.547 326.157 418.599 326.12C418.65 326.083 418.709 326.057 418.771 326.042L426.421 324.292C426.781 324.212 426.957 324.356 426.951 324.722C426.917 330.449 426.907 336.306 426.921 342.292C426.931 346.082 429.141 347.353 432.741 347.453C436.287 347.553 439.824 347.559 443.351 347.472C443.691 347.466 443.817 347.299 443.731 346.972C439.501 331.202 463.521 324.312 465.601 337.912C465.821 339.359 465.797 342.399 465.531 347.032C465.517 347.326 465.654 347.472 465.941 347.472L469.121 347.542C469.235 347.542 469.344 347.497 469.425 347.417C469.505 347.336 469.551 347.227 469.551 347.112C469.544 343.039 469.507 338.896 469.441 334.683C469.271 323.483 451.091 326.502 445.001 329.172C444.967 329.188 444.93 329.194 444.894 329.189C444.857 329.185 444.822 329.171 444.793 329.148C444.764 329.125 444.742 329.095 444.73 329.061C444.717 329.026 444.714 328.989 444.721 328.953L445.651 324.392C445.669 324.302 445.71 324.217 445.772 324.147C445.833 324.077 445.912 324.024 446.001 323.992C454.901 320.912 477.351 319.212 476.941 334.552C476.834 338.766 476.757 342.922 476.711 347.022C476.704 347.322 476.851 347.476 477.151 347.482C481.904 347.536 486.661 347.523 491.421 347.443C493.927 347.403 495.327 345.896 495.621 342.922C496.181 337.242 495.904 326.456 494.791 310.563C494.777 310.343 494.881 310.209 495.101 310.162L502.641 308.443C502.672 308.435 502.705 308.434 502.736 308.441C502.768 308.449 502.798 308.463 502.823 308.483C502.848 308.503 502.868 308.529 502.882 308.559C502.895 308.588 502.902 308.62 502.901 308.652C502.907 319.666 502.911 330.752 502.911 341.912C502.911 349.946 498.994 353.942 491.161 353.902C470.247 353.796 449.331 353.736 428.411 353.722C427.284 353.722 425.771 353.159 423.871 352.032C423.736 351.953 423.582 351.909 423.425 351.906C423.267 351.902 423.111 351.939 422.971 352.013C420.817 353.133 419.381 353.696 418.661 353.703C404.994 353.756 391.337 353.762 377.691 353.722C377.659 353.722 377.628 353.715 377.601 353.701C377.573 353.686 377.548 353.666 377.53 353.641C377.512 353.615 377.499 353.586 377.494 353.555C377.489 353.524 377.491 353.492 377.501 353.462L379.241 347.763C379.294 347.583 379.421 347.489 379.621 347.482L397.141 347.472C397.474 347.472 397.644 347.306 397.651 346.972ZM457.531 334.542C452.111 332.472 449.131 340.602 449.511 344.582C449.581 345.304 449.907 345.977 450.429 346.479C450.952 346.981 451.637 347.281 452.361 347.323L456.801 347.563C458.461 347.656 459.237 346.872 459.131 345.212C459.017 343.439 459.001 340.926 459.081 337.672C459.114 335.992 458.597 334.949 457.531 334.542Z" fill="#A69154"/>
<path d="M897.381 347.012C893.594 340.699 889.781 334.396 885.941 328.102C883.661 324.362 880.871 321.332 878.011 318.032C877.524 317.472 877.651 317.192 878.391 317.192L886.251 317.162C886.416 317.162 886.578 317.206 886.722 317.288C886.865 317.371 886.986 317.489 887.071 317.632L902.441 343.422C903.034 344.416 903.337 344.332 903.351 343.172C903.397 336.319 903.407 329.546 903.381 322.852C903.361 318.892 902.401 315.132 901.761 311.202C901.707 310.856 901.851 310.646 902.191 310.572L909.871 308.922C910.237 308.842 910.424 308.989 910.431 309.362C910.484 323.616 910.491 332.966 910.451 337.412C910.411 341.512 910.101 347.342 915.661 347.442C923.121 347.582 927.787 347.576 929.661 347.422C932.751 347.182 933.601 344.402 933.701 341.552C933.974 333.426 933.687 323.089 932.841 310.542C932.827 310.342 932.921 310.219 933.121 310.172L940.641 308.442C940.672 308.435 940.706 308.435 940.738 308.442C940.77 308.449 940.8 308.463 940.826 308.483C940.852 308.503 940.873 308.529 940.887 308.558C940.902 308.587 940.91 308.62 940.911 308.652C940.904 319.919 940.891 331.259 940.871 342.672C940.857 349.966 937.204 353.642 929.911 353.702C923.831 353.749 917.747 353.742 911.661 353.682C910.441 353.669 908.917 353.082 907.091 351.922C906.791 351.729 906.487 351.732 906.181 351.932C904.434 353.079 903.094 353.656 902.161 353.662C894.774 353.742 887.361 353.772 879.921 353.752C879.882 353.751 879.845 353.741 879.812 353.721C879.779 353.702 879.751 353.675 879.731 353.642C879.711 353.609 879.7 353.572 879.698 353.533C879.696 353.495 879.704 353.457 879.721 353.422L882.491 347.802C882.597 347.596 882.764 347.492 882.991 347.492L897.111 347.482C897.484 347.482 897.574 347.326 897.381 347.012Z" fill="#A69154"/>
<path d="M519.851 308.942C518.421 323.702 519.051 338.752 519.031 353.482C519.031 353.554 519.002 353.623 518.952 353.673C518.901 353.724 518.832 353.752 518.761 353.752L512.181 353.742C512.109 353.742 512.04 353.714 511.99 353.663C511.939 353.613 511.911 353.544 511.911 353.472C511.897 342.612 511.897 331.696 511.911 320.722C511.921 316.992 511.271 313.302 510.851 309.632C510.831 309.419 510.927 309.306 511.141 309.292L519.611 308.692C519.784 308.679 519.864 308.762 519.851 308.942Z" fill="#A69154"/>
<path d="M603.471 318.183C603.431 315.543 603.171 312.933 602.751 310.383C602.631 309.683 602.924 309.309 603.631 309.263L610.871 308.732C611.497 308.686 611.771 308.976 611.691 309.602C611.311 312.502 610.911 315.643 610.901 318.693C610.867 330.346 610.864 341.916 610.891 353.402C610.891 353.629 610.774 353.743 610.541 353.743L604.041 353.753C603.953 353.753 603.869 353.718 603.807 353.656C603.745 353.594 603.711 353.51 603.711 353.423C603.704 341.736 603.624 329.989 603.471 318.183Z" fill="#A69154"/>
<path d="M805.181 317.332C807.555 317.332 809.481 315.407 809.481 313.032C809.481 310.658 807.555 308.732 805.181 308.732C802.806 308.732 800.881 310.658 800.881 313.032C800.881 315.407 802.806 317.332 805.181 317.332Z" fill="#A69154"/>
<path d="M422.081 317.352C424.461 317.352 426.391 315.423 426.391 313.042C426.391 310.662 424.461 308.732 422.081 308.732C419.7 308.732 417.771 310.662 417.771 313.042C417.771 315.423 419.7 317.352 422.081 317.352Z" fill="#A69154"/>
<path d="M763.031 350.172C758.441 355.652 750.141 354.372 745.471 350.062C745.211 349.822 744.954 349.822 744.701 350.062C741.591 353.032 739.591 353.722 735.021 353.722C707.767 353.749 680.514 353.749 653.261 353.722C643.171 353.722 639.991 350.822 639.941 340.992C639.907 334.612 639.897 328.232 639.911 321.852C639.921 318.382 639.231 314.842 638.871 311.282C638.831 310.876 639.011 310.626 639.411 310.532L646.621 308.932C646.691 308.917 646.763 308.918 646.833 308.934C646.903 308.95 646.968 308.982 647.024 309.026C647.079 309.07 647.124 309.126 647.155 309.189C647.185 309.253 647.201 309.322 647.201 309.392C647.127 320.512 647.137 331.642 647.231 342.782C647.261 346.852 650.251 347.432 653.791 347.442C680.837 347.476 707.877 347.476 734.911 347.442C737.704 347.442 739.171 345.849 739.311 342.662C739.384 340.849 739.414 336.396 739.401 329.302C739.401 328.802 739.644 328.496 740.131 328.382L745.781 327.062C746.287 326.942 746.541 327.142 746.541 327.662V344.652C746.54 344.799 746.573 344.945 746.635 345.078C746.697 345.211 746.788 345.328 746.901 345.422C750.031 347.992 757.431 349.242 757.661 343.282C757.854 338.542 757.931 333.802 757.891 329.062C757.891 328.911 757.943 328.765 758.037 328.647C758.132 328.529 758.263 328.446 758.411 328.412L764.441 327.012C764.794 326.932 764.971 327.072 764.971 327.432L764.981 344.422C764.987 344.682 765.107 344.922 765.341 345.142C768.174 347.762 771.114 348.356 774.161 346.922C778.261 344.982 775.721 330.172 774.911 326.752C774.892 326.673 774.889 326.59 774.902 326.51C774.915 326.429 774.945 326.352 774.989 326.283C775.033 326.214 775.09 326.154 775.157 326.108C775.225 326.061 775.301 326.029 775.381 326.012L782.931 324.332C783.002 324.317 783.076 324.318 783.147 324.335C783.218 324.352 783.284 324.384 783.341 324.429C783.397 324.474 783.443 324.531 783.474 324.595C783.505 324.66 783.521 324.731 783.521 324.802C783.521 330.616 783.514 336.489 783.501 342.422C783.491 346.352 785.891 347.362 789.501 347.482C793.671 347.622 800.061 348.592 800.491 343.402C800.984 337.509 800.577 331.849 799.271 326.422C799.253 326.346 799.265 326.265 799.307 326.197C799.348 326.13 799.414 326.081 799.491 326.062L807.571 324.262C807.777 324.216 807.881 324.296 807.881 324.502C807.901 330.689 807.934 336.662 807.981 342.422C808.031 349.192 816.171 347.512 820.541 347.452C824.211 347.402 826.571 346.332 826.581 342.372C826.587 338.079 826.631 333.569 826.711 328.842C826.711 328.636 826.814 328.509 827.021 328.462L833.331 326.992C833.617 326.926 833.761 327.039 833.761 327.332L833.771 344.432C833.771 344.759 833.891 345.032 834.131 345.252C837.601 348.372 845.231 349.032 845.241 342.672C845.241 337.932 845.221 333.366 845.181 328.972C845.18 328.846 845.223 328.722 845.303 328.622C845.383 328.522 845.495 328.452 845.621 328.422L851.921 327.022C851.964 327.014 852.009 327.014 852.052 327.025C852.094 327.035 852.134 327.055 852.169 327.083C852.203 327.11 852.231 327.145 852.25 327.185C852.27 327.225 852.28 327.268 852.281 327.312L852.311 344.402C852.311 344.749 852.441 345.042 852.701 345.282C856.261 348.542 863.491 348.892 863.681 342.422C863.841 336.942 863.374 331.669 862.281 326.602C862.214 326.302 862.331 326.116 862.631 326.042L870.331 324.302C870.383 324.292 870.437 324.294 870.489 324.306C870.541 324.319 870.589 324.343 870.631 324.376C870.673 324.409 870.707 324.451 870.731 324.499C870.755 324.547 870.769 324.599 870.771 324.652C870.831 329.932 870.841 335.309 870.801 340.782C870.774 344.816 870.267 347.659 869.281 349.312C865.511 355.592 855.931 354.632 850.971 350.142C850.717 349.916 850.484 349.932 850.271 350.192C845.771 355.762 837.301 354.272 832.581 349.932C832.307 349.679 832.051 349.696 831.811 349.982C829.804 352.356 827.591 353.576 825.171 353.642C817.441 353.862 809.531 354.682 804.851 352.082C804.703 352 804.538 351.955 804.371 351.951C804.203 351.948 804.038 351.986 803.891 352.062C802.021 353.012 800.501 353.602 798.321 353.672C791.871 353.862 784.761 354.622 780.471 352.062C780.164 351.882 779.854 351.869 779.541 352.022C773.741 354.902 768.451 354.269 763.671 350.122C763.437 349.922 763.224 349.939 763.031 350.172Z" fill="#A69154"/>
<path d="M754.941 317.352C757.321 317.352 759.251 315.423 759.251 313.042C759.251 310.662 757.321 308.732 754.941 308.732C752.56 308.732 750.631 310.662 750.631 313.042C750.631 315.423 752.56 317.352 754.941 317.352Z" fill="#A69154"/>
<path d="M766.467 317.252C768.903 317.231 770.861 315.329 770.841 313.004C770.82 310.679 768.829 308.811 766.394 308.833C763.958 308.854 762.001 310.756 762.021 313.081C762.041 315.406 764.032 317.274 766.467 317.252Z" fill="#A69154"/>
<path d="M793.671 317.312C796.04 317.312 797.961 315.392 797.961 313.022C797.961 310.653 796.04 308.732 793.671 308.732C791.301 308.732 789.381 310.653 789.381 313.022C789.381 315.392 791.301 317.312 793.671 317.312Z" fill="#A69154"/>
<path d="M198.631 322.912L198.321 320.942C198.247 320.482 198.437 320.202 198.891 320.102L206.251 318.532C206.697 318.439 206.921 318.622 206.921 319.082C206.901 326.609 206.877 334.302 206.851 342.162C206.841 346.722 209.701 347.482 213.741 347.482C240.281 347.462 266.814 347.452 293.341 347.452C297.721 347.452 299.841 346.622 299.871 341.912C299.917 335.479 299.444 330.259 298.451 326.252C298.384 325.972 298.491 325.799 298.771 325.732L306.641 323.972C306.69 323.962 306.741 323.962 306.79 323.974C306.84 323.985 306.885 324.006 306.925 324.037C306.964 324.068 306.996 324.107 307.017 324.151C307.039 324.195 307.051 324.243 307.051 324.292C307.057 330.299 307.071 336.509 307.091 342.922C307.101 346.242 309.511 347.322 312.581 347.452C316.707 347.632 319.737 347.619 321.671 347.412C325.051 347.042 325.601 344.332 325.641 341.232C325.707 337.032 325.767 332.982 325.821 329.082C325.821 328.702 326.004 328.469 326.371 328.382L332.391 326.992C332.717 326.919 332.881 327.052 332.881 327.392L332.901 344.662C332.901 344.969 333.021 345.219 333.261 345.412C336.441 348.022 342.961 348.992 344.171 344.102C345.061 340.532 344.401 333.092 344.381 328.802C344.381 328.715 344.41 328.629 344.465 328.56C344.519 328.491 344.595 328.443 344.681 328.422L351.161 326.962C351.193 326.956 351.226 326.957 351.258 326.965C351.289 326.973 351.319 326.988 351.344 327.008C351.369 327.028 351.388 327.053 351.402 327.082C351.415 327.11 351.422 327.141 351.421 327.172L351.431 344.422C351.431 344.862 351.607 345.219 351.961 345.492C354.474 347.459 357.187 348.002 360.101 347.122C364.751 345.712 362.151 330.182 361.441 326.732C361.423 326.655 361.421 326.575 361.435 326.496C361.448 326.418 361.477 326.343 361.52 326.276C361.563 326.209 361.619 326.151 361.684 326.106C361.749 326.061 361.823 326.029 361.901 326.012L369.291 324.322C369.684 324.236 369.884 324.392 369.891 324.792C369.917 329.692 369.927 334.612 369.921 339.552C369.914 343.839 369.624 346.716 369.051 348.182C366.081 355.732 355.081 354.772 349.971 350.012C349.811 349.859 349.661 349.869 349.521 350.042C344.981 355.712 336.391 354.372 331.681 349.942C331.414 349.689 331.164 349.699 330.931 349.972C328.857 352.366 326.687 353.592 324.421 353.652C316.421 353.862 308.461 354.722 303.881 351.992C303.744 351.911 303.588 351.867 303.428 351.865C303.269 351.863 303.111 351.904 302.971 351.982C300.971 353.142 299.451 353.722 298.411 353.722C268.324 353.756 238.241 353.752 208.161 353.712C206.181 353.712 204.014 352.672 201.661 350.592C201.546 350.49 201.406 350.422 201.256 350.395C201.105 350.369 200.951 350.385 200.811 350.442C192.091 354.012 181.561 352.892 180.011 341.642C178.241 328.712 186.471 323.492 198.191 323.442C198.544 323.442 198.691 323.266 198.631 322.912ZM187.421 341.462C189.141 347.492 194.351 346.822 199.251 345.752C199.671 345.666 199.881 345.406 199.881 344.972V328.682C199.881 328.329 199.704 328.142 199.351 328.122C190.811 327.752 184.761 332.192 187.421 341.462Z" fill="#A69154"/>
<path d="M560.971 328.772C563.34 328.772 565.261 326.852 565.261 324.482C565.261 322.113 563.34 320.192 560.971 320.192C558.601 320.192 556.681 322.113 556.681 324.482C556.681 326.852 558.601 328.772 560.971 328.772Z" fill="#A69154"/>
<path d="M572.481 328.782C574.85 328.782 576.771 326.862 576.771 324.492C576.771 322.123 574.85 320.202 572.481 320.202C570.111 320.202 568.191 322.123 568.191 324.492C568.191 326.862 570.111 328.782 572.481 328.782Z" fill="#A69154"/>
<path d="M594.651 324.432C594.717 328.632 594.731 332.912 594.691 337.272C594.637 342.966 594.444 346.382 594.111 347.522C592.897 351.689 589.577 353.769 584.151 353.762C574.451 353.742 564.744 353.732 555.031 353.732C550.531 353.732 547.351 353.266 545.491 352.332C537.181 348.182 536.891 336.902 540.701 329.362C540.791 329.185 540.93 329.035 541.101 328.931C541.272 328.827 541.469 328.772 541.671 328.772L546.901 328.802C546.97 328.803 547.038 328.824 547.097 328.861C547.156 328.898 547.203 328.95 547.233 329.011C547.264 329.073 547.276 329.142 547.268 329.209C547.261 329.276 547.234 329.34 547.191 329.392C541.981 335.982 542.711 347.402 553.411 347.462C562.684 347.516 571.957 347.519 581.231 347.472C585.071 347.452 587.461 346.582 587.601 342.422C587.807 336.636 587.334 331.292 586.181 326.392C586.173 326.36 586.172 326.327 586.178 326.294C586.183 326.262 586.195 326.231 586.213 326.203C586.231 326.175 586.254 326.151 586.281 326.132C586.308 326.113 586.338 326.1 586.371 326.092L594.431 324.252C594.457 324.246 594.485 324.246 594.512 324.253C594.538 324.259 594.563 324.271 594.585 324.289C594.606 324.306 594.623 324.328 594.634 324.353C594.646 324.378 594.651 324.405 594.651 324.432Z" fill="#A69154"/>
<path d="M614.421 366.302C620.551 364.222 623.621 359.692 623.651 353.372C623.664 348.926 623.671 344.479 623.671 340.032C623.671 335.332 623.061 331.122 622.251 326.622C622.226 326.485 622.255 326.343 622.332 326.227C622.408 326.112 622.526 326.031 622.661 326.002L630.061 324.352C630.521 324.252 630.751 324.436 630.751 324.902C630.791 333.609 630.841 342.199 630.901 350.672C630.961 360.052 624.891 366.762 616.051 368.952C615.584 369.072 615.214 368.929 614.941 368.522L614.101 367.262C614.046 367.181 614.011 367.089 613.998 366.992C613.985 366.895 613.994 366.797 614.025 366.704C614.056 366.611 614.108 366.527 614.176 366.457C614.245 366.388 614.328 366.335 614.421 366.302Z" fill="#A69154"/>
<path d="M882.741 364.473L887.001 364.333C887.741 364.306 888.334 364.592 888.781 365.192L889.581 366.282C890.027 366.882 889.877 367.182 889.131 367.182L876.151 367.162C875.644 367.156 875.394 366.902 875.401 366.402L875.421 365.372C875.421 364.859 875.681 364.586 876.201 364.552L877.471 364.483C877.627 364.471 877.774 364.405 877.886 364.295C877.998 364.185 878.067 364.039 878.081 363.882C878.561 358.542 882.931 355.952 887.701 358.942C887.813 359.012 887.899 359.116 887.946 359.239C887.993 359.361 887.998 359.496 887.961 359.622L887.601 360.862C887.586 360.915 887.56 360.963 887.523 361.003C887.486 361.043 887.441 361.074 887.389 361.093C887.338 361.112 887.282 361.12 887.227 361.114C887.172 361.109 887.118 361.091 887.071 361.062C886.257 360.549 885.371 360.212 884.411 360.052C883.965 359.98 883.509 360.069 883.124 360.304C882.739 360.539 882.45 360.904 882.311 361.333L881.721 363.112C881.414 364.052 881.754 364.506 882.741 364.473Z" fill="#A69154"/>
<path d="M292.041 369.292C294.416 369.292 296.341 367.367 296.341 364.992C296.341 362.618 294.416 360.692 292.041 360.692C289.666 360.692 287.741 362.618 287.741 364.992C287.741 367.367 289.666 369.292 292.041 369.292Z" fill="#A69154"/>
<path d="M303.551 369.262C305.914 369.262 307.831 367.346 307.831 364.983C307.831 362.619 305.914 360.702 303.551 360.702C301.187 360.702 299.271 362.619 299.271 364.983C299.271 367.346 301.187 369.262 303.551 369.262Z" fill="#A69154"/>
<path d="M605.491 398.563C605.471 398.969 605.424 399.393 605.351 399.833C605.328 399.977 605.262 400.111 605.162 400.216C605.061 400.322 604.932 400.394 604.791 400.423C604.411 400.496 604.024 400.506 603.631 400.453C603.475 400.432 603.33 400.365 603.213 400.259C603.097 400.154 603.016 400.015 602.981 399.862C600.647 390.182 594.621 386.379 584.901 388.453C573.931 390.793 573.051 406.932 574.981 415.882C576.767 424.129 581.381 428.372 588.821 428.612C595.421 428.812 601.091 425.433 604.241 419.733C604.434 419.379 604.701 419.313 605.041 419.533L606.511 420.502C606.837 420.716 606.904 420.996 606.711 421.343C603.551 427.016 598.784 430.349 592.411 431.343C556.531 436.913 556.371 386.412 585.721 385.122C589.107 384.969 592.747 385.373 596.641 386.333C602.874 387.873 605.824 391.949 605.491 398.563Z" fill="#A69154"/>
<path d="M192.861 409.453V426.882C192.861 427.182 193.014 427.336 193.321 427.343C196.894 427.429 200.421 427.506 203.901 427.573C209.474 427.679 213.217 425.282 215.131 420.382C215.191 420.224 215.307 420.093 215.457 420.012C215.608 419.931 215.783 419.907 215.951 419.943L216.651 420.093C216.741 420.112 216.827 420.152 216.901 420.207C216.975 420.263 217.037 420.334 217.081 420.416C217.126 420.497 217.152 420.587 217.159 420.68C217.166 420.772 217.153 420.865 217.121 420.953C215.211 426.273 215.071 430.402 208.131 430.422C200.144 430.442 192.171 430.436 184.211 430.402C184.131 430.402 184.055 430.371 183.999 430.315C183.942 430.258 183.911 430.182 183.911 430.103C183.924 417.816 183.911 405.506 183.871 393.172C183.864 389.852 182.227 388.232 178.961 388.312C178.872 388.314 178.784 388.297 178.701 388.264C178.619 388.231 178.544 388.182 178.48 388.12C178.417 388.058 178.367 387.983 178.333 387.901C178.298 387.819 178.281 387.731 178.281 387.642V387.292C178.287 386.632 178.617 386.302 179.271 386.302C189.384 386.276 199.511 386.286 209.651 386.333C215.421 386.353 214.811 392.542 214.561 397.052C214.555 397.157 214.511 397.255 214.436 397.326C214.361 397.397 214.262 397.435 214.161 397.432L212.981 397.392C212.854 397.39 212.733 397.337 212.644 397.246C212.555 397.155 212.503 397.032 212.501 396.902C212.391 390.442 208.361 389.432 202.611 389.362C199.457 389.322 196.314 389.322 193.181 389.362C192.967 389.369 192.861 389.476 192.861 389.682V405.682C192.861 405.762 192.893 405.838 192.951 405.895C193.01 405.951 193.088 405.983 193.171 405.983L210.161 405.992C210.621 405.992 210.841 406.219 210.821 406.672L210.731 408.432C210.711 408.799 210.517 408.979 210.151 408.973L193.381 408.932C193.034 408.932 192.861 409.106 192.861 409.453Z" fill="#A69154"/>
<path d="M761.641 395.172C761.651 391.772 761.071 387.732 756.471 388.412C756.264 388.446 756.157 388.359 756.151 388.152L756.121 386.662C756.114 386.436 756.224 386.319 756.451 386.312C760.371 386.212 763.607 386.249 766.161 386.422C770.101 386.682 770.571 391.172 770.581 394.302C770.654 406.322 770.664 418.219 770.611 429.992C770.611 430.279 770.464 430.422 770.171 430.422L762.121 430.432C761.807 430.432 761.651 430.272 761.651 429.952C761.637 418.512 761.634 406.919 761.641 395.172Z" fill="#A69154"/>
<path d="M300.526 394.118C302.46 395.891 305.311 395.928 306.893 394.201C308.475 392.475 308.189 389.639 306.255 387.866C304.321 386.094 301.471 386.057 299.889 387.783C298.307 389.51 298.592 392.346 300.526 394.118Z" fill="#A69154"/>
<path d="M457.222 394.101C459.146 395.876 461.99 395.924 463.574 394.207C465.158 392.49 464.883 389.659 462.959 387.884C461.035 386.108 458.192 386.061 456.607 387.778C455.023 389.495 455.298 392.326 457.222 394.101Z" fill="#A69154"/>
<path d="M779.911 401.943L777.141 402.083C777.048 402.087 776.955 402.072 776.868 402.04C776.781 402.008 776.701 401.959 776.633 401.895C776.565 401.832 776.511 401.756 776.472 401.671C776.434 401.587 776.413 401.495 776.411 401.402L776.361 399.733C776.347 399.219 776.594 398.963 777.101 398.963H780.081C780.381 398.963 780.531 398.809 780.531 398.502L780.561 393.203C780.561 392.978 780.646 392.76 780.801 392.593L783.751 389.242C783.823 389.158 783.913 389.09 784.015 389.043C784.117 388.997 784.228 388.972 784.341 388.973L788.861 388.943C789.327 388.936 789.561 389.166 789.561 389.632L789.501 398.483C789.494 398.796 789.651 398.953 789.971 398.953L796.411 398.963C796.504 398.962 796.596 398.981 796.682 399.017C796.768 399.053 796.845 399.106 796.909 399.172C796.974 399.239 797.024 399.317 797.057 399.403C797.09 399.489 797.105 399.581 797.101 399.672L797.021 401.432C797.001 401.819 796.797 402.009 796.411 402.002L789.971 401.932C789.664 401.932 789.511 402.086 789.511 402.392C789.517 409.499 789.541 416.589 789.581 423.662C789.611 429.252 794.561 428.502 797.881 426.632C797.985 426.574 798.102 426.539 798.221 426.53C798.341 426.521 798.46 426.538 798.572 426.58C798.683 426.622 798.784 426.688 798.867 426.773C798.95 426.858 799.012 426.96 799.051 427.073L799.171 427.412C799.377 428.006 799.217 428.469 798.691 428.802C791.371 433.392 780.131 431.562 780.541 420.652C780.687 416.672 780.647 410.592 780.421 402.412C780.414 402.079 780.244 401.923 779.911 401.943Z" fill="#A69154"/>
<path d="M535.821 401.502C539.934 403.296 541.767 406.176 541.321 410.142C540.211 420.072 528.791 418.663 521.921 419.323C520.941 419.416 520.277 419.756 519.931 420.343C519.816 420.541 519.752 420.765 519.745 420.995C519.738 421.224 519.788 421.451 519.89 421.656C519.992 421.86 520.144 422.035 520.331 422.166C520.518 422.296 520.734 422.378 520.961 422.402C528.521 423.262 545.561 422.622 543.291 435.432C541.471 445.682 523.171 444.313 516.481 442.333C510.301 440.503 507.051 432.782 512.511 428.022C514.217 426.536 516.124 425.509 518.231 424.943C518.27 424.934 518.306 424.913 518.333 424.882C518.359 424.852 518.376 424.814 518.38 424.773C518.384 424.731 518.376 424.689 518.357 424.652C518.337 424.614 518.307 424.583 518.271 424.562C515.957 423.282 515.397 421.426 516.591 418.992C516.737 418.699 516.971 418.516 517.291 418.443C517.617 418.363 517.851 418.216 517.991 418.002C518.204 417.689 518.137 417.459 517.791 417.312C510.251 413.992 509.721 403.812 516.891 400.162C518.844 399.176 521.267 398.636 524.161 398.542C529.547 398.376 535.084 398.322 540.771 398.382C540.867 398.384 540.961 398.411 541.045 398.46C541.128 398.509 541.197 398.578 541.245 398.662C541.293 398.745 541.319 398.84 541.32 398.937C541.321 399.033 541.297 399.128 541.251 399.213L541.011 399.652C540.804 400.026 540.491 400.236 540.071 400.282L535.921 400.802C535.843 400.815 535.771 400.852 535.715 400.908C535.66 400.965 535.624 401.037 535.612 401.116C535.601 401.194 535.615 401.274 535.653 401.343C535.69 401.413 535.749 401.469 535.821 401.502ZM526.636 416.582C527.375 416.577 528.106 416.369 528.786 415.969C529.466 415.569 530.083 414.986 530.6 414.252C531.118 413.519 531.527 412.65 531.803 411.694C532.079 410.738 532.218 409.715 532.211 408.683C532.203 407.651 532.051 406.63 531.761 405.678C531.471 404.727 531.051 403.863 530.523 403.137C529.995 402.411 529.37 401.836 528.684 401.446C527.999 401.056 527.265 400.857 526.526 400.863C525.786 400.868 525.056 401.076 524.376 401.476C523.695 401.876 523.079 402.459 522.561 403.193C522.043 403.926 521.635 404.795 521.358 405.751C521.082 406.707 520.944 407.73 520.951 408.762C520.958 409.794 521.111 410.815 521.4 411.767C521.69 412.718 522.111 413.582 522.639 414.308C523.166 415.034 523.791 415.609 524.477 415.999C525.163 416.389 525.896 416.587 526.636 416.582ZM532.537 438.305C533.799 436.768 534.371 434.769 534.126 432.748C533.881 430.726 532.84 428.848 531.231 427.527C530.435 426.873 529.523 426.375 528.547 426.061C527.572 425.748 526.553 425.626 525.548 425.701C524.542 425.777 523.571 426.049 522.688 426.501C521.806 426.954 521.03 427.579 520.405 428.34C519.142 429.877 518.57 431.876 518.815 433.897C519.06 435.919 520.101 437.797 521.71 439.118C522.507 439.772 523.419 440.27 524.394 440.584C525.369 440.897 526.389 441.019 527.394 440.944C528.399 440.868 529.371 440.596 530.253 440.144C531.136 439.691 531.912 439.066 532.537 438.305Z" fill="#A69154"/>
<path d="M231.741 401.032C239.271 396.522 253.651 396.622 254.091 408.442C254.371 415.796 254.471 422.986 254.391 430.012C254.384 430.292 254.241 430.432 253.961 430.432L245.861 430.412C245.567 430.412 245.421 430.269 245.421 429.982C245.494 419.316 245.481 412.132 245.381 408.432C245.201 401.622 238.511 400.212 233.501 403.032C233.247 403.172 233.121 403.389 233.121 403.682L233.111 429.952C233.111 430.279 232.951 430.439 232.631 430.432L224.631 430.422C224.311 430.422 224.151 430.262 224.151 429.942C224.137 422.882 224.161 415.626 224.221 408.172C224.241 404.902 223.881 400.722 219.271 400.992C218.824 401.019 218.614 400.812 218.641 400.372L218.681 399.682C218.693 399.495 218.773 399.318 218.906 399.187C219.039 399.056 219.215 398.98 219.401 398.972C223.931 398.792 228.301 398.352 230.971 400.942C231.204 401.176 231.461 401.206 231.741 401.032Z" fill="#A69154"/>
<path d="M285.301 401.402C294.531 406.442 291.541 417.262 281.631 418.512C278.921 418.852 271.571 418.603 269.641 419.973C269.441 420.116 269.288 420.316 269.2 420.546C269.112 420.776 269.094 421.027 269.147 421.267C269.2 421.508 269.322 421.727 269.499 421.899C269.676 422.07 269.899 422.186 270.141 422.233C275.921 423.283 281.211 422.412 287.161 425.132C291.581 427.152 293.741 431.353 292.541 436.103C290.301 444.923 274.801 444.292 268.151 442.942C263.191 441.932 258.561 438.582 259.231 432.872C259.751 428.392 263.331 426.403 267.341 425.093C267.801 424.946 267.847 424.712 267.481 424.392C264.981 422.222 264.151 420.173 267.381 417.983C267.707 417.756 267.691 417.559 267.331 417.392C262.921 415.382 260.461 411.242 261.411 406.432C262.561 400.602 268.711 398.562 274.111 398.442C279.491 398.309 284.784 398.289 289.991 398.382C290.511 398.396 290.721 398.656 290.621 399.162L290.541 399.562C290.502 399.744 290.407 399.909 290.269 400.035C290.131 400.16 289.957 400.24 289.771 400.262L285.411 400.792C284.744 400.872 284.707 401.076 285.301 401.402ZM276.056 416.582C277.546 416.572 278.97 415.734 280.013 414.252C281.057 412.771 281.635 410.768 281.621 408.683C281.613 407.651 281.461 406.63 281.172 405.678C280.883 404.727 280.463 403.863 279.936 403.137C279.409 402.411 278.785 401.836 278.101 401.446C277.416 401.056 276.684 400.857 275.946 400.863C274.455 400.873 273.032 401.711 271.988 403.192C270.944 404.674 270.366 406.677 270.381 408.762C270.388 409.794 270.54 410.815 270.829 411.767C271.119 412.718 271.539 413.582 272.066 414.308C272.592 415.034 273.216 415.609 273.901 415.999C274.585 416.389 275.317 416.587 276.056 416.582ZM281.965 438.294C283.223 436.757 283.79 434.759 283.541 432.74C283.291 430.72 282.246 428.845 280.635 427.526C279.024 426.208 276.979 425.554 274.95 425.708C272.921 425.863 271.074 426.813 269.816 428.35C268.558 429.888 267.991 431.886 268.241 433.905C268.49 435.925 269.536 437.8 271.147 439.119C272.758 440.437 274.803 441.091 276.832 440.937C278.86 440.782 280.707 439.832 281.965 438.294Z" fill="#A69154"/>
<path d="M325.531 400.952C334.381 395.892 348.081 397.052 348.211 410.182C348.284 416.989 348.324 423.572 348.331 429.932C348.331 430.246 348.174 430.402 347.861 430.402L339.891 430.422C339.537 430.422 339.361 430.246 339.361 429.892C339.401 423.299 339.387 416.479 339.321 409.432C339.251 402.222 333.421 399.713 327.491 402.973C327.324 403.063 327.185 403.197 327.088 403.36C326.991 403.524 326.941 403.711 326.941 403.902L326.961 429.742C326.961 430.156 326.754 430.366 326.341 430.372L318.701 430.432C318.281 430.439 318.071 430.232 318.071 429.812C318.037 422.186 318.011 414.306 317.991 406.172C317.977 402.639 316.291 400.899 312.931 400.952C312.857 400.954 312.783 400.94 312.715 400.912C312.647 400.883 312.585 400.841 312.534 400.787C312.484 400.733 312.444 400.67 312.42 400.6C312.395 400.53 312.385 400.456 312.391 400.382L312.421 399.973C312.467 399.353 312.804 399.026 313.431 398.992C317.571 398.792 322.391 398.362 324.731 400.832C324.964 401.086 325.231 401.126 325.531 400.952Z" fill="#A69154"/>
<path d="M363.951 416.372C363.877 418.892 364.307 421.319 365.241 423.652C368.081 430.752 376.831 428.302 380.561 423.372C381.101 422.652 381.731 422.566 382.451 423.112L382.721 423.322C382.924 423.479 383.063 423.706 383.109 423.959C383.155 424.212 383.106 424.474 382.971 424.692C378.591 431.782 368.301 432.652 361.821 428.792C354.221 424.272 352.841 412.732 356.731 405.512C363.921 392.162 388.541 398.232 384.471 415.482C384.397 415.782 384.204 415.932 383.891 415.932L364.451 415.892C364.131 415.892 363.964 416.052 363.951 416.372ZM364.511 412.932L374.991 412.952C375.155 412.952 375.313 412.887 375.429 412.771C375.545 412.655 375.611 412.497 375.611 412.332V411.182C375.615 408.587 375.054 406.096 374.051 404.259C373.048 402.421 371.684 401.386 370.261 401.382H369.281C368.575 401.38 367.876 401.632 367.223 402.123C366.571 402.613 365.977 403.333 365.477 404.241C364.976 405.149 364.578 406.228 364.306 407.416C364.034 408.603 363.893 409.876 363.891 411.162V412.312C363.891 412.477 363.956 412.635 364.072 412.751C364.188 412.867 364.346 412.932 364.511 412.932Z" fill="#A69154"/>
<path d="M399.011 416.332C398.791 422.032 400.651 428.892 407.921 427.872C411.247 427.406 413.847 425.839 415.721 423.172C416.167 422.539 416.674 422.482 417.241 423.002L417.881 423.582C418.033 423.721 418.129 423.911 418.151 424.117C418.173 424.323 418.12 424.531 418.001 424.702C414.841 429.289 410.224 431.383 404.151 430.983C392.641 430.223 387.761 419.442 390.241 409.422C394.541 391.972 423.081 395.722 419.521 415.412C419.461 415.752 419.257 415.922 418.911 415.922L399.461 415.902C399.174 415.902 399.024 416.046 399.011 416.332ZM399.541 412.922L410.081 413.002C410.234 413.002 410.382 412.941 410.491 412.833C410.6 412.724 410.661 412.576 410.661 412.422L410.671 411.172C410.689 408.587 410.146 406.103 409.162 404.267C408.177 402.431 406.832 401.393 405.421 401.382H404.361C403.662 401.377 402.968 401.624 402.319 402.109C401.67 402.594 401.079 403.308 400.578 404.21C400.078 405.111 399.678 406.183 399.402 407.364C399.126 408.545 398.98 409.812 398.971 411.092L398.961 412.342C398.961 412.496 399.022 412.644 399.13 412.753C399.239 412.861 399.387 412.922 399.541 412.922Z" fill="#A69154"/>
<path d="M436.651 404.342C436.607 404.373 436.572 404.413 436.548 404.46C436.523 404.507 436.511 404.559 436.511 404.612L436.581 429.762C436.581 429.845 436.564 429.927 436.533 430.003C436.501 430.08 436.455 430.149 436.396 430.208C436.338 430.266 436.268 430.313 436.192 430.344C436.115 430.376 436.033 430.392 435.951 430.392H428.181C427.761 430.392 427.554 430.179 427.561 429.752C427.667 422.612 427.681 415.256 427.601 407.682C427.571 404.492 427.231 400.722 422.731 401.022C422.655 401.028 422.578 401.017 422.507 400.991C422.435 400.965 422.37 400.924 422.315 400.87C422.261 400.816 422.218 400.751 422.189 400.679C422.161 400.607 422.148 400.53 422.151 400.452L422.171 399.472C422.184 399.146 422.354 398.979 422.681 398.972C426.301 398.842 431.401 398.192 434.631 400.982C434.891 401.209 435.161 401.219 435.441 401.012C439.691 397.932 447.851 396.442 450.381 402.342C450.507 402.649 450.437 402.896 450.171 403.082L447.771 404.822C447.497 405.022 447.231 405.012 446.971 404.792C443.731 402.086 440.291 401.936 436.651 404.342Z" fill="#A69154"/>
<path d="M483.681 403.922L483.671 429.672C483.671 430.179 483.417 430.432 482.911 430.432L475.411 430.402C475.31 430.402 475.21 430.383 475.118 430.344C475.025 430.305 474.94 430.248 474.87 430.176C474.799 430.105 474.743 430.02 474.706 429.926C474.668 429.833 474.649 429.733 474.651 429.632C474.737 422.052 474.757 414.316 474.711 406.422C474.691 402.722 473.064 400.919 469.831 401.012C469.751 401.015 469.671 401.002 469.597 400.972C469.522 400.942 469.455 400.897 469.4 400.839C469.344 400.782 469.301 400.713 469.274 400.638C469.246 400.562 469.235 400.482 469.241 400.402L469.291 399.442C469.304 399.142 469.461 398.986 469.761 398.972C473.971 398.822 478.961 398.302 481.481 400.862C481.727 401.116 482.004 401.152 482.311 400.972C486.764 398.326 491.571 397.559 496.731 398.672C503.221 400.072 505.261 405.902 505.201 411.922C505.134 418.156 505.064 424.146 504.991 429.892C504.991 430.252 504.807 430.432 504.441 430.432L496.641 430.412C496.287 430.406 496.111 430.226 496.111 429.872C496.104 423.619 496.124 417.136 496.171 410.422C496.211 403.152 490.771 399.002 484.181 403.032C484.028 403.127 483.902 403.259 483.814 403.415C483.727 403.57 483.681 403.745 483.681 403.922Z" fill="#A69154"/>
<path d="M644.339 414.43C644.373 416.598 643.974 418.751 643.167 420.767C642.359 422.783 641.158 424.623 639.631 426.18C638.105 427.737 636.283 428.982 634.27 429.844C632.257 430.705 630.093 431.166 627.9 431.2C623.471 431.27 619.197 429.598 616.017 426.551C612.837 423.504 611.011 419.333 610.943 414.955C610.909 412.787 611.307 410.633 612.115 408.617C612.922 406.601 614.124 404.762 615.65 403.205C617.176 401.648 618.998 400.403 621.011 399.541C623.024 398.68 625.188 398.219 627.381 398.184C631.81 398.115 636.084 399.787 639.264 402.834C642.445 405.881 644.27 410.052 644.339 414.43ZM627.651 428.252C629.603 428.252 631.475 426.823 632.855 424.278C634.235 421.733 635.011 418.281 635.011 414.682C635.011 411.084 634.235 407.632 632.855 405.087C631.475 402.542 629.603 401.112 627.651 401.112C625.699 401.112 623.827 402.542 622.446 405.087C621.066 407.632 620.291 411.084 620.291 414.682C620.291 418.281 621.066 421.733 622.446 424.278C623.827 426.823 625.699 428.252 627.651 428.252Z" fill="#A69154"/>
<path d="M659.731 400.912C667.991 396.142 682.421 397.133 682.451 409.683C682.464 416.509 682.461 423.139 682.441 429.573C682.434 430.113 682.164 430.382 681.631 430.382L674.181 430.412C673.634 430.412 673.364 430.139 673.371 429.593C673.464 422.633 673.417 415.579 673.231 408.433C673.051 401.613 666.501 400.012 661.491 403.142C661.211 403.322 661.071 403.579 661.071 403.912L661.091 429.693C661.091 430.166 660.857 430.402 660.391 430.402L652.871 430.392C652.371 430.392 652.124 430.142 652.131 429.642C652.164 422.022 652.164 414.203 652.131 406.183C652.117 402.629 650.414 400.893 647.021 400.973C646.945 400.974 646.871 400.96 646.801 400.931C646.732 400.902 646.669 400.859 646.617 400.804C646.566 400.75 646.526 400.685 646.501 400.614C646.475 400.543 646.465 400.468 646.471 400.392L646.491 400.022C646.537 399.369 646.891 399.026 647.551 398.992C651.011 398.812 655.951 398.273 658.971 400.843C659.204 401.043 659.457 401.066 659.731 400.912Z" fill="#A69154"/>
<path d="M714.141 409.032C713.101 409.379 712.424 409.082 712.111 408.142C710.317 402.816 706.791 400.623 701.531 401.563C695.791 402.593 696.521 408.242 701.141 410.242C706.651 412.622 718.891 415.983 715.641 424.693C712.751 432.423 694.331 433.223 690.031 427.223C689.157 426.003 688.951 423.889 689.411 420.882C689.451 420.609 689.601 420.426 689.861 420.333C690.301 420.186 690.704 420.219 691.071 420.433C691.351 420.593 691.584 420.919 691.771 421.412C694.064 427.686 698.481 429.642 705.021 427.282C706.754 426.656 707.567 425.453 707.461 423.673C707.181 419.203 696.591 416.293 693.991 414.843C686.611 410.743 687.201 401.643 695.691 399.313C700.871 397.893 705.971 398.089 710.991 399.902C714.751 401.262 714.781 405.053 714.651 408.353C714.637 408.693 714.467 408.919 714.141 409.032Z" fill="#A69154"/>
<path d="M820.751 411.622C821.271 407.852 820.221 402.533 815.821 401.563C811.661 400.636 808.917 402.386 807.591 406.813C807.491 407.153 807.261 407.329 806.901 407.343L804.461 407.413C804.187 407.419 804.031 407.289 803.991 407.022C802.381 397.742 812.341 397.933 818.641 398.713C825.501 399.566 829.221 403.473 829.801 410.433C830.034 413.246 830.037 419.729 829.811 429.882C829.804 430.216 829.634 430.389 829.301 430.402C826.581 430.492 823.921 431.183 822.331 428.193C821.911 427.393 821.401 427.332 820.801 428.012C815.541 434.042 801.441 431.303 801.271 421.923C801.101 412.613 813.051 411.632 820.141 412.112C820.501 412.139 820.704 411.976 820.751 411.622ZM820.361 415.043C814.391 414.703 808.541 417.643 811.081 424.733C812.761 429.433 817.761 427.963 820.111 424.813C821.471 422.983 820.961 417.833 820.871 415.573C820.857 415.239 820.687 415.063 820.361 415.043Z" fill="#A69154"/>
<path d="M846.521 400.892C852.751 397.132 864.421 396.653 868.011 404.343C868.811 406.043 869.204 409.486 869.191 414.672C869.177 419.832 869.201 424.856 869.261 429.742C869.262 429.826 869.247 429.909 869.216 429.987C869.185 430.064 869.138 430.135 869.08 430.194C869.021 430.254 868.951 430.301 868.874 430.334C868.797 430.366 868.714 430.382 868.631 430.382L860.881 430.422C860.698 430.422 860.522 430.35 860.393 430.22C860.263 430.091 860.191 429.916 860.191 429.733C860.304 419.733 860.291 412.636 860.151 408.442C859.931 401.732 853.501 400.123 848.441 402.973C848.28 403.063 848.147 403.195 848.053 403.355C847.96 403.514 847.911 403.697 847.911 403.882L847.901 429.453C847.898 429.723 847.789 429.981 847.598 430.171C847.407 430.36 847.149 430.465 846.881 430.463L839.861 430.432C839.234 430.426 838.921 430.109 838.921 429.483C838.994 417.489 838.977 409.386 838.871 405.172C838.791 401.892 836.481 401.403 833.811 400.833C833.451 400.753 833.267 400.529 833.261 400.162C833.254 399.842 833.361 399.562 833.581 399.322C833.741 399.149 833.991 399.049 834.331 399.022C837.901 398.762 842.811 398.292 845.711 400.822C845.964 401.049 846.234 401.072 846.521 400.892Z" fill="#A69154"/>
<path d="M894.921 401.462C883.071 399.532 883.561 417.562 886.481 424.062C889.321 430.392 898.831 428.343 902.311 423.473C902.515 423.183 902.822 422.981 903.169 422.909C903.516 422.837 903.878 422.899 904.181 423.082L904.521 423.292C904.646 423.367 904.754 423.467 904.839 423.587C904.923 423.706 904.982 423.841 905.011 423.984C905.04 424.127 905.039 424.275 905.008 424.417C904.977 424.56 904.917 424.695 904.831 424.812C897.511 434.822 880.571 432.463 876.621 421.223C872.441 409.323 879.241 398.272 892.471 398.312C896.911 398.322 903.461 398.472 904.171 404.142C904.277 404.996 904.367 406.759 904.441 409.432C904.442 409.51 904.428 409.588 904.398 409.66C904.369 409.732 904.326 409.798 904.271 409.853C904.216 409.908 904.15 409.951 904.078 409.98C904.006 410.009 903.928 410.024 903.851 410.022H902.861C902.692 410.021 902.53 409.956 902.406 409.842C902.282 409.727 902.206 409.57 902.191 409.402C901.817 404.836 899.394 402.189 894.921 401.462Z" fill="#A69154"/>
<path d="M929.221 419.683L937.091 399.553C937.244 399.159 937.531 398.959 937.951 398.953H940.381C940.774 398.953 940.901 399.136 940.761 399.502C936.027 411.756 931.221 424.059 926.341 436.413C924.067 442.173 919.797 444.546 913.531 443.533C913.324 443.499 913.234 443.383 913.261 443.183L913.441 441.653C913.467 441.446 913.581 441.346 913.781 441.353C920.261 441.613 923.051 437.263 924.531 431.563C924.611 431.249 924.581 430.946 924.441 430.653C917.981 416.753 913.767 407.806 911.801 403.813C910.807 401.793 909.147 400.473 906.821 399.853C906.441 399.746 906.191 399.609 906.071 399.443C905.984 399.316 905.937 399.169 905.931 399.002C905.911 398.649 906.077 398.463 906.431 398.443C912.441 398.063 918.131 397.743 921.051 403.963C923.524 409.223 926.037 414.469 928.591 419.703C928.817 420.176 929.027 420.169 929.221 419.683Z" fill="#A69154"/>
<path d="M299.541 406.272C299.491 402.752 298.051 401.072 294.461 400.932C294.121 400.919 293.967 400.746 294.001 400.412L294.111 399.422C294.137 399.129 294.297 398.979 294.591 398.973C302.011 398.813 308.801 396.962 308.701 407.422C308.621 415.122 308.564 422.602 308.531 429.862C308.531 430.014 308.471 430.159 308.364 430.265C308.257 430.372 308.112 430.432 307.961 430.432L300.141 430.412C299.781 430.412 299.604 430.236 299.611 429.882C299.697 422.189 299.674 414.319 299.541 406.272Z" fill="#A69154"/>
<path d="M456.261 406.932C456.251 402.832 455.211 401.392 451.131 400.852C451.051 400.842 450.975 400.815 450.906 400.773C450.838 400.732 450.778 400.677 450.732 400.612C450.686 400.548 450.654 400.474 450.639 400.397C450.623 400.319 450.623 400.239 450.641 400.162L450.791 399.512C450.864 399.179 451.071 399.006 451.411 398.992C454.017 398.879 456.681 398.899 459.401 399.052C463.451 399.272 465.001 400.982 465.101 404.922C465.294 413.409 465.341 421.719 465.241 429.852C465.234 430.219 465.047 430.402 464.681 430.402H456.871C456.477 430.402 456.281 430.209 456.281 429.822C456.281 422.362 456.274 414.732 456.261 406.932Z" fill="#A69154"/>
<path d="M744.301 427.752C736.991 433.882 723.801 431.992 723.401 420.402C723.227 415.422 723.124 410.429 723.091 405.422C723.061 401.952 720.881 401.363 718.001 400.843C717.845 400.815 717.704 400.733 717.602 400.613C717.5 400.493 717.443 400.34 717.441 400.182C717.434 399.842 717.547 399.556 717.781 399.322C717.954 399.142 718.224 399.042 718.591 399.022C726.001 398.572 732.201 397.332 732.111 406.922C732.064 411.582 732.127 416.239 732.301 420.892C732.681 431.182 744.121 429.572 744.141 421.432C744.154 413.946 744.147 406.642 744.121 399.522C744.114 399.149 744.297 398.962 744.671 398.962H752.661C752.721 398.962 752.781 398.974 752.837 398.998C752.893 399.021 752.943 399.054 752.986 399.097C753.029 399.14 753.062 399.191 753.086 399.246C753.109 399.302 753.121 399.362 753.121 399.422V429.692C753.121 430.086 752.927 430.312 752.541 430.372C751.541 430.522 750.401 430.362 749.351 430.432C746.761 430.632 746.691 429.362 745.171 427.802C744.891 427.516 744.601 427.499 744.301 427.752Z" fill="#A69154"/>
<path d="M1412.81 342.029C1415.49 340.629 1416.82 338.361 1416.82 335.225C1416.71 223.668 1416.64 112.215 1416.62 0.867538C1416.62 0.408742 1416.77 0.350666 1417.07 0.693311L1468.15 59.8344C1468.61 60.3739 1468.87 61.0598 1468.86 61.7683C1468.85 166.711 1468.86 271.801 1468.88 377.039C1468.89 388.146 1468.15 395.586 1457.35 399.401C1449.62 402.128 1443.75 398.399 1438.5 393.138C1393.73 348.228 1348.89 303.376 1303.99 258.583C1301.93 256.527 1300.51 254.419 1299.72 252.258C1297.75 246.901 1301.43 240.847 1306.24 239.026C1307.78 238.439 1310.98 238.155 1315.84 238.172C1337.52 238.236 1359.21 238.32 1380.9 238.425C1381.66 238.431 1382.34 238.454 1382.91 238.495C1383.06 238.506 1383.2 238.574 1383.3 238.686C1383.41 238.798 1383.46 238.944 1383.46 239.096C1383.28 261.71 1383.31 284.316 1383.55 306.913C1383.62 314.17 1385.55 318.508 1390.56 324.162C1394.66 328.79 1398.99 333.187 1403.57 337.351C1405.87 339.459 1409.31 343.858 1412.81 342.029Z" fill="#2D4C69"/>
<path d="M1641.37 238.181C1648.38 238.129 1654.51 240.098 1655.5 247.912C1656.12 252.772 1652.95 256.936 1649.27 260.587C1605.83 303.684 1562.54 346.921 1519.38 390.298C1512.5 397.215 1505.7 403.617 1495.24 398.565C1486.83 394.497 1486.05 387.65 1486.06 378.276C1486.1 272.951 1486.11 167.625 1486.1 62.2997C1486.1 60.6881 1486.78 59.7299 1487.76 58.5974C1504.49 39.2351 1521.2 19.9076 1537.88 0.614932C1538.11 0.353593 1538.22 0.394245 1538.22 0.73689C1538.21 112.346 1538.22 224.022 1538.25 335.765C1538.25 340.574 1542.82 344.746 1547.32 340.931C1553.19 335.954 1558.87 330.352 1564.37 324.127C1569.89 317.855 1571.35 313.29 1571.41 305.171C1571.53 283.172 1571.56 261.159 1571.48 239.131C1571.48 239.02 1571.51 238.911 1571.55 238.809C1571.59 238.706 1571.65 238.614 1571.73 238.536C1571.81 238.458 1571.9 238.397 1572 238.355C1572.1 238.314 1572.21 238.293 1572.32 238.294C1595.27 238.381 1618.28 238.344 1641.37 238.181Z" fill="#A69154"/>
<path d="M1380.24 14.6662C1343.67 14.6575 1307.05 14.5007 1270.47 14.7708C1262.99 14.823 1257.51 15.2702 1254.04 16.1123C1236.47 20.3809 1222.88 35.2511 1219.73 52.8131C1219.17 55.9724 1218.89 61.7625 1218.89 70.1834C1218.88 189.093 1218.88 308.002 1218.89 426.911C1218.89 435.03 1219.25 440.809 1219.98 444.247C1223.68 461.6 1237.54 475.791 1254.9 479.728C1258.41 480.524 1264.18 480.927 1272.22 480.939C1336.32 481.009 1400.42 481 1464.53 480.913C1469.19 480.904 1471.81 486.593 1470.21 490.504C1468.71 494.172 1465.82 494.642 1461.9 494.642C1393.67 494.636 1325.44 494.636 1257.2 494.642C1252.68 494.642 1247.19 493.338 1240.72 490.731C1219.3 482.115 1205.18 462.332 1205.19 439.107C1205.24 314.826 1205.26 190.545 1205.24 66.2633C1205.24 58.156 1205.54 52.363 1206.13 48.8843C1210.15 25.3986 1228.84 6.50375 1252.27 2C1255.96 1.29148 1261.75 0.937223 1269.62 0.937223C1306.71 0.931415 1343.81 0.925607 1380.9 0.9198C1389.25 0.9198 1389.81 14.675 1380.24 14.6662Z" fill="#A69154"/>
<path d="M1735.6 450.171C1737.66 444.578 1738.28 439.273 1738.28 432.713C1738.29 311.074 1738.29 189.433 1738.28 67.7878C1738.28 59.7037 1737.88 53.9281 1737.09 50.461C1733.16 33.3781 1719.29 19.8408 1702.4 15.912C1698.87 15.0873 1693.57 14.672 1686.52 14.6662C1650.5 14.6488 1614.48 14.6459 1578.45 14.6575C1576.01 14.6633 1574.18 14.2829 1572.97 13.5163C1566.66 9.53527 1570.36 0.89366 1577.55 0.884949C1614.5 0.884949 1651.45 0.890757 1688.41 0.902372C1696.07 0.902372 1701.84 1.3118 1705.73 2.13066C1728.82 6.94802 1746.98 25.5205 1751.14 48.8233C1752.56 56.7854 1752.15 67.0909 1752.15 76.0635C1752.14 193.922 1752.13 311.78 1752.12 429.638C1752.12 438.146 1751.9 443.942 1751.45 447.026C1748.09 470.198 1730.03 489.337 1706.87 493.666C1703.34 494.322 1697.55 494.651 1689.5 494.651C1624.94 494.627 1560.39 494.627 1495.84 494.651C1493.17 494.651 1491.22 494.34 1490 493.718C1483.66 490.487 1486.35 480.974 1493.71 480.965C1559.48 480.93 1625.25 480.913 1691.02 480.913C1711.29 480.913 1728.59 469.074 1735.6 450.171Z" fill="#2D4C69"/>
<path d="M1392.07 389.827C1385.31 383.128 1378.05 385.245 1372.04 391.265C1356.96 406.388 1341.88 421.502 1326.78 436.607C1323.13 440.266 1319.59 444.482 1315.93 448.402C1311.21 453.464 1307.19 456.112 1300.13 456.138C1287.91 456.19 1275.69 456.187 1263.49 456.129C1257.2 456.094 1252.35 455.589 1249.84 449.744C1246.26 441.416 1253.49 435.771 1258.58 430.692C1284.44 404.942 1310.28 379.162 1336.09 353.353C1345.36 344.084 1358.14 340.757 1369.77 348.309C1372.94 350.377 1375.87 352.755 1378.54 355.444C1407.7 384.789 1436.9 414.094 1466.16 443.358C1469.23 446.431 1469.73 449.506 1467.65 452.584C1463.55 458.664 1457.83 455.528 1453.85 451.538C1423.87 421.508 1403.27 400.937 1392.07 389.827Z" fill="#2D4C69"/>
<path d="M1577.83 354.224C1590.72 341.358 1606.24 340.609 1619.23 353.649C1646.51 381.038 1673.83 408.383 1701.2 435.684C1705.46 439.926 1707.76 445.066 1704.52 450.763C1702.49 454.335 1699 456.103 1694.06 456.068C1689.06 456.033 1677.33 456.051 1658.88 456.121C1649.91 456.155 1644.82 455.328 1639.25 448.829C1635.58 444.555 1630.85 439.494 1625.05 433.645C1611.2 419.684 1597.32 405.769 1583.38 391.901C1575.45 384.008 1569.13 383.52 1561.11 391.517C1540.72 411.855 1520.35 432.202 1499.97 452.558C1496.34 456.182 1489.94 457.758 1486.98 452.331C1485.29 449.224 1485.78 446.326 1488.47 443.637C1518.23 413.816 1548.02 384.011 1577.83 354.224Z" fill="#A69154"/>
</svg>
