<svg width="1120" height="1047" viewBox="0 0 1120 1047" fill="none" xmlns="http://www.w3.org/2000/svg">
<path d="M484.329 392.56C487.402 390.953 488.939 388.35 488.939 384.75C488.806 256.69 488.729 128.75 488.709 0.93003C488.709 0.403363 488.879 0.336696 489.219 0.730029L547.859 68.62C548.389 69.2394 548.679 70.0267 548.679 70.84C548.666 191.307 548.672 311.943 548.699 432.75C548.709 445.5 547.859 454.04 535.459 458.42C526.589 461.55 519.849 457.27 513.819 451.23C462.426 399.677 410.959 348.19 359.419 296.77C357.052 294.41 355.416 291.99 354.509 289.51C352.249 283.36 356.479 276.41 361.999 274.32C363.766 273.647 367.439 273.32 373.019 273.34C397.906 273.413 422.799 273.51 447.699 273.63C448.579 273.637 449.349 273.663 450.009 273.71C450.182 273.723 450.344 273.801 450.461 273.93C450.579 274.058 450.642 274.226 450.639 274.4C450.432 300.36 450.466 326.31 450.739 352.25C450.829 360.58 453.039 365.56 458.789 372.05C463.496 377.363 468.472 382.41 473.719 387.19C476.369 389.61 480.319 394.66 484.329 392.56Z" fill="#2D4C69"/>
<path d="M746.699 273.35C754.749 273.29 761.789 275.55 762.929 284.52C763.639 290.1 759.999 294.88 755.769 299.07C705.909 348.543 656.209 398.177 606.669 447.97C598.769 455.91 590.959 463.26 578.959 457.46C569.299 452.79 568.409 444.93 568.419 434.17C568.459 313.263 568.472 192.357 568.459 71.45C568.459 69.6 569.249 68.5 570.369 67.2C589.576 44.9734 608.756 22.7867 627.909 0.640024C628.162 0.340024 628.289 0.38669 628.289 0.780024C628.282 128.9 628.296 257.097 628.329 385.37C628.329 390.89 633.579 395.68 638.739 391.3C645.479 385.587 652.002 379.157 658.309 372.01C664.649 364.81 666.329 359.57 666.389 350.25C666.536 324.997 666.566 299.727 666.479 274.44C666.479 274.313 666.504 274.187 666.552 274.07C666.601 273.953 666.672 273.847 666.761 273.758C666.85 273.668 666.956 273.598 667.073 273.55C667.189 273.503 667.314 273.479 667.439 273.48C693.779 273.58 720.199 273.537 746.699 273.35Z" fill="#A69154"/>
<path d="M446.949 16.77C404.959 16.76 362.929 16.58 320.939 16.89C312.346 16.95 306.056 17.4633 302.069 18.43C281.909 23.33 266.309 40.4 262.689 60.56C262.042 64.1867 261.719 70.8333 261.719 80.5C261.712 217 261.712 353.5 261.719 490C261.719 499.32 262.139 505.953 262.979 509.9C267.219 529.82 283.139 546.11 303.059 550.63C307.086 551.543 313.716 552.007 322.949 552.02C396.529 552.1 470.112 552.09 543.699 551.99C549.049 551.98 552.059 558.51 550.219 563C548.499 567.21 545.179 567.75 540.689 567.75C462.362 567.743 384.032 567.743 305.699 567.75C300.512 567.75 294.206 566.253 286.779 563.26C262.199 553.37 245.989 530.66 245.999 504C246.059 361.333 246.079 218.667 246.059 76C246.059 66.6933 246.399 60.0433 247.079 56.05C251.689 29.09 273.149 7.39999 300.039 2.22999C304.279 1.41666 310.919 1.00999 319.959 1.00999C362.539 1.00332 405.119 0.996657 447.699 0.98999C457.289 0.98999 457.929 16.78 446.949 16.77Z" fill="#A69154"/>
<path d="M854.869 516.7C857.239 510.28 857.949 504.19 857.949 496.66C857.956 357.027 857.956 217.39 857.949 77.75C857.949 68.47 857.492 61.84 856.579 57.86C852.069 38.25 836.149 22.71 816.759 18.2C812.706 17.2533 806.629 16.7767 798.529 16.77C757.182 16.75 715.832 16.7467 674.479 16.76C671.672 16.7667 669.576 16.33 668.189 15.45C660.939 10.88 665.189 0.960012 673.439 0.950012C715.859 0.950012 758.279 0.956679 800.699 0.970013C809.492 0.970013 816.122 1.44001 820.589 2.38001C847.089 7.91001 867.939 29.23 872.709 55.98C874.339 65.12 873.869 76.95 873.869 87.25C873.856 222.543 873.846 357.837 873.839 493.13C873.839 502.897 873.582 509.55 873.069 513.09C869.209 539.69 848.479 561.66 821.889 566.63C817.842 567.383 811.196 567.76 801.949 567.76C727.842 567.733 653.739 567.733 579.639 567.76C576.579 567.76 574.346 567.403 572.939 566.69C565.659 562.98 568.749 552.06 577.199 552.05C652.699 552.01 728.199 551.99 803.699 551.99C826.969 551.99 846.829 538.4 854.869 516.7Z" fill="#2D4C69"/>
<path d="M460.519 447.43C452.759 439.74 444.429 442.17 437.529 449.08C420.222 466.44 402.906 483.79 385.579 501.13C381.389 505.33 377.319 510.17 373.119 514.67C367.699 520.48 363.089 523.52 354.979 523.55C340.952 523.61 326.932 523.607 312.919 523.54C305.699 523.5 300.129 522.92 297.249 516.21C293.139 506.65 301.439 500.17 307.289 494.34C336.976 464.78 366.632 435.187 396.259 405.56C406.899 394.92 421.569 391.1 434.919 399.77C438.566 402.143 441.922 404.873 444.989 407.96C478.462 441.647 511.989 475.287 545.569 508.88C549.102 512.407 549.676 515.937 547.289 519.47C542.579 526.45 536.009 522.85 531.439 518.27C497.026 483.797 473.386 460.183 460.519 447.43Z" fill="#2D4C69"/>
<path d="M673.769 406.56C688.559 391.79 706.379 390.93 721.289 405.9C752.602 437.34 783.966 468.73 815.379 500.07C820.269 504.94 822.919 510.84 819.199 517.38C816.866 521.48 812.862 523.51 807.189 523.47C801.442 523.43 787.982 523.45 766.809 523.53C756.509 523.57 750.659 522.62 744.269 515.16C740.062 510.253 734.629 504.443 727.969 497.73C712.076 481.703 696.132 465.73 680.139 449.81C671.029 440.75 663.779 440.19 654.569 449.37C631.169 472.717 607.776 496.073 584.389 519.44C580.219 523.6 572.869 525.41 569.479 519.18C567.532 515.613 568.099 512.287 571.179 509.2C605.352 474.967 639.549 440.753 673.769 406.56Z" fill="#A69154"/>
<path d="M437.68 728.01L416.41 708.52C416.123 708.26 415.973 707.937 415.96 707.55C415.74 702.47 419.12 697.04 422.73 693.7C432.91 684.29 446.8 681.25 460.21 683.51C472.25 685.53 485.43 693.07 487.86 706.31C487.936 706.739 487.903 707.18 487.763 707.591C487.623 708.002 487.381 708.37 487.06 708.66L465.6 728C464.407 729.073 464.613 729.613 466.22 729.62C481.367 729.647 496.36 729.66 511.2 729.66C519.62 729.65 524.26 728.09 524.3 718.86C524.347 706.407 524.363 693.947 524.35 681.48C524.34 673.59 523.09 666.07 522.06 658.29C522.03 658.074 522.082 657.854 522.206 657.674C522.33 657.495 522.517 657.368 522.73 657.32L537.86 653.78C538.173 653.707 538.33 653.834 538.33 654.16C538.323 673.86 538.327 693.557 538.34 713.25C538.34 721.917 537.827 727.614 536.8 730.34C532.94 740.55 523.95 741.88 513.3 741.9C496.867 741.934 480.433 741.93 464 741.89C461.587 741.883 458.243 741.04 453.97 739.36C452.657 738.847 451.3 738.643 449.9 738.75C446.42 739.01 437.7 737.87 436.04 741.38C435.968 741.533 435.854 741.661 435.71 741.752C435.567 741.842 435.4 741.89 435.23 741.89C420.737 741.943 406.577 741.937 392.75 741.87C389.343 741.85 385.877 740.537 382.35 737.93C382.063 737.717 381.807 737.747 381.58 738.02C374.147 746.733 364.953 750.523 354 749.39C347.993 748.763 343.25 745.617 339.77 739.95C339.691 739.822 339.569 739.727 339.426 739.681C339.283 739.635 339.129 739.642 338.99 739.7C335.61 741.167 333.03 741.904 331.25 741.91C275.217 741.924 219.187 741.924 163.16 741.91C161.54 741.91 159.81 741.42 158.1 741.17C157.74 741.117 157.54 741.27 157.5 741.63C155.63 758.12 143.71 767.72 128.56 771.68C127.987 771.827 127.553 771.647 127.26 771.14L125.05 767.34C124.737 766.807 124.88 766.457 125.48 766.29C133.38 764.1 139.7 758.46 142.32 751.28C143.427 748.24 143.987 742.747 144 734.8C144.02 723.59 144.67 711.84 143.04 700.76C142.447 696.74 141.837 692.757 141.21 688.81C141.18 688.63 141.221 688.446 141.323 688.295C141.425 688.144 141.582 688.039 141.76 688L157.24 684.61C157.303 684.597 157.368 684.598 157.43 684.612C157.492 684.627 157.55 684.656 157.6 684.696C157.65 684.736 157.69 684.787 157.718 684.845C157.746 684.903 157.76 684.966 157.76 685.03C157.76 696.097 157.767 707.213 157.78 718.38C157.79 724.31 160.3 729.64 167 729.64C219.147 729.66 271.293 729.66 323.44 729.64C336.04 729.63 333.74 723.96 335.43 714.63C340.16 688.39 369.14 686.17 389.52 692.55C389.833 692.643 389.963 692.853 389.91 693.18C388.737 700.74 388.23 709.55 388.39 719.61C388.53 728.29 393.24 729.64 401.1 729.65C412.927 729.664 424.91 729.653 437.05 729.62C438.63 729.613 438.84 729.077 437.68 728.01ZM452.37 724.29L472.14 706C472.335 705.82 472.471 705.586 472.532 705.327C472.593 705.069 472.574 704.798 472.48 704.55C469.18 695.92 456.8 694.24 449.06 694.82C442.18 695.34 435.03 697.72 431.46 704.2C431.292 704.509 431.232 704.865 431.29 705.213C431.348 705.561 431.521 705.88 431.78 706.12L451.54 724.29C451.813 724.543 452.09 724.543 452.37 724.29ZM350.38 710.76C348.5 718.23 348.33 727.89 353.14 734.27C358.59 741.51 368.78 738.09 374.06 732.34C374.26 732.12 374.363 731.857 374.37 731.55C374.43 723.957 374.43 716.357 374.37 708.75C374.35 705.95 373.74 703.18 373.39 700.38C373.343 700.033 373.153 699.814 372.82 699.72C363.2 697.16 353.03 700.16 350.38 710.76Z" fill="#333638"/>
<path d="M103.57 655.57L119.96 654.29C120.38 654.257 120.573 654.447 120.54 654.86C120.05 662.02 119.15 669.28 119.13 676.24C119.063 697.967 119.08 719.693 119.18 741.42C119.18 741.747 119.017 741.91 118.69 741.91H105.75C105.37 741.91 105.183 741.72 105.19 741.34C105.263 719.027 105.28 696.79 105.24 674.63C105.233 671.63 104.513 665.48 103.08 656.18C103.027 655.8 103.19 655.597 103.57 655.57Z" fill="#333638"/>
<path d="M571.21 654.77C570.94 661.65 569.83 668.49 569.81 675.39C569.75 697.39 569.747 719.377 569.8 741.35C569.8 741.501 569.741 741.646 569.636 741.753C569.531 741.86 569.389 741.92 569.24 741.92L556.24 741.9C556.134 741.9 556.032 741.858 555.957 741.783C555.882 741.708 555.84 741.606 555.84 741.5C555.933 720.227 555.947 698.943 555.88 677.65C555.86 670.35 554.78 663.33 553.84 656.1C553.793 655.76 553.94 655.577 554.28 655.55L570.71 654.28C571.063 654.253 571.23 654.417 571.21 654.77Z" fill="#333638"/>
<path d="M1008.88 729.21C1008.84 729.247 1008.82 729.294 1008.81 729.344C1008.8 729.394 1008.81 729.446 1008.83 729.493C1008.85 729.54 1008.88 729.58 1008.93 729.608C1008.97 729.636 1009.02 729.651 1009.07 729.65H1104.23C1104.3 729.65 1104.38 729.621 1104.43 729.568C1104.48 729.516 1104.51 729.444 1104.51 729.37C1104.5 724.41 1104.5 719.443 1104.51 714.47C1104.52 709.13 1104.07 705.453 1103.16 703.44C1099.98 696.42 1091.14 694.6 1084 694.55C1066.93 694.41 1049.89 694.33 1032.88 694.31C1032.05 694.31 1031.94 694.027 1032.55 693.46C1045.74 681.24 1058.28 668.39 1070.18 654.91C1070.4 654.657 1070.68 654.53 1071.02 654.53H1089.62C1090.17 654.53 1090.23 654.7 1089.79 655.04C1084.4 659.26 1079 663.573 1073.58 667.98C1068.52 672.11 1063.85 677.01 1059.13 681.56C1058.36 682.3 1058.51 682.667 1059.58 682.66C1069.45 682.553 1079.09 682.583 1088.5 682.75C1099.13 682.93 1113.35 687.97 1117.1 699.25C1117.96 701.857 1118.39 706.807 1118.38 714.1C1118.37 723.2 1118.37 732.3 1118.38 741.4C1118.38 741.74 1118.21 741.91 1117.87 741.91C1078.21 741.917 1038.51 741.917 998.78 741.91C992.9 741.91 987.67 739.96 981.75 740.81C978.65 741.25 975.51 741.9 972.39 741.9C912.363 741.927 852.333 741.927 792.3 741.9C781.6 741.89 773.1 740.4 769.18 730.16C768.227 727.66 767.743 723.75 767.73 718.43C767.717 706.25 767.72 694.073 767.74 681.9C767.75 674.02 766.5 666.65 765.39 658.91C765.36 658.708 765.409 658.503 765.525 658.334C765.642 658.165 765.819 658.046 766.02 658L781.2 654.61C781.553 654.537 781.73 654.68 781.73 655.04C781.717 675.367 781.723 695.67 781.75 715.95C781.76 723.29 782.68 729.65 791.24 729.65C847.833 729.65 904.44 729.65 961.06 729.65C961.117 729.65 961.172 729.633 961.22 729.602C961.267 729.571 961.304 729.527 961.327 729.474C961.349 729.422 961.356 729.365 961.345 729.309C961.335 729.253 961.309 729.201 961.27 729.16C954.84 722.66 953.22 712.89 955.61 704.26C958.62 693.36 967.77 686.4 978.99 684.91C987.38 683.8 996.26 684.73 1003.36 689.15C1016.84 697.55 1020.08 717.32 1008.88 729.21ZM971.15 721.75C973.82 730.15 983.43 733.55 991.03 730.05C1005.15 723.55 1004.02 693.14 985.22 693.73C969.71 694.22 967.4 709.92 971.15 721.75Z" fill="#333638"/>
<path d="M626.342 670.98C631.097 670.938 634.919 667.229 634.88 662.695C634.84 658.161 630.953 654.519 626.198 654.56C621.443 654.602 617.621 658.311 617.66 662.845C617.7 667.379 621.587 671.021 626.342 670.98Z" fill="#333638"/>
<path d="M648.28 671.007C653.034 671.14 656.99 667.564 657.117 663.021C657.244 658.477 653.493 654.686 648.74 654.553C643.987 654.421 640.03 657.996 639.903 662.54C639.776 667.083 643.527 670.874 648.28 671.007Z" fill="#333638"/>
<path d="M985.409 670.977C990.124 670.714 993.74 666.821 993.487 662.283C993.233 657.745 989.205 654.279 984.491 654.543C979.776 654.807 976.16 658.699 976.413 663.237C976.667 667.776 980.695 671.241 985.409 670.977Z" fill="#333638"/>
<path d="M615.06 688.94C621.93 681.39 632.03 679.21 641.87 680.3C662.26 682.57 669.37 701.49 665.19 719.46C661.93 733.48 651.36 741.85 636.84 741.96C625.51 742.04 615.72 737.63 610.65 727.51C604.86 715.99 606.06 698.82 615.06 688.94ZM639.01 732.56C645.46 731.61 649.13 726.52 650.37 720.51C652.23 711.49 652.66 692.24 640.52 689.65C629.48 687.29 623.95 694.4 622.47 704.52C620.86 715.55 622.51 735 639.01 732.56Z" fill="#333638"/>
<path d="M39.94 771.51C17.73 769.44 6.47001 754.31 6.07001 732.5C5.91001 723.38 5.81999 714.213 5.79999 705C5.79996 704.872 5.85023 704.749 5.93997 704.657C6.02971 704.566 6.15178 704.513 6.28 704.51L18.99 704.46C19.39 704.453 19.59 704.653 19.59 705.06C19.55 712.86 19.5733 720.63 19.66 728.37C19.77 738.71 21.76 749.23 29.09 756.31C36.3 763.27 48.33 765.27 57.48 760.92C67.58 756.12 73.23 744.36 73.77 733.37C73.93 730.037 73.9633 723.083 73.87 712.51C73.79 704.63 72.43 697.01 71.36 689.18C71.2933 688.673 71.51 688.363 72.01 688.25L87.26 684.7C87.3046 684.691 87.3506 684.692 87.3947 684.703C87.4388 684.714 87.48 684.735 87.5153 684.764C87.5506 684.792 87.5791 684.828 87.599 684.869C87.6188 684.91 87.6294 684.955 87.63 685C87.65 701.133 87.65 717.307 87.63 733.52C87.59 760.64 64.9 773.84 39.94 771.51Z" fill="#333638"/>
<path d="M46.9973 713.035C51.6772 712.666 55.1813 708.686 54.8238 704.143C54.4663 699.601 50.3826 696.217 45.7027 696.586C41.0227 696.954 37.5187 700.935 37.8762 705.477C38.2337 710.019 42.3173 713.403 46.9973 713.035Z" fill="#333638"/>
<path d="M705.46 729.59C710.993 729.71 716.533 729.727 722.08 729.64C726.52 729.57 731.64 728.61 736.52 728.32C736.687 728.311 736.854 728.342 737.007 728.412C737.16 728.482 737.295 728.587 737.4 728.72L747.51 741.37C747.55 741.419 747.576 741.478 747.583 741.54C747.591 741.603 747.58 741.666 747.553 741.723C747.526 741.78 747.482 741.828 747.429 741.861C747.375 741.894 747.313 741.911 747.25 741.91L678.27 741.92C677.93 741.92 677.757 741.747 677.75 741.4V730.14C677.75 729.813 677.913 729.65 678.24 729.65H690.28C690.727 729.65 690.943 729.427 690.93 728.98C690.83 725.24 691.183 721.463 691.99 717.65C695.75 699.87 713.26 693.72 729.09 699.74C732.35 700.98 735.61 702.673 738.87 704.82C739.063 704.947 739.13 705.123 739.07 705.35L736.64 714.24C736.629 714.279 736.608 714.314 736.58 714.343C736.552 714.373 736.517 714.394 736.479 714.407C736.441 714.42 736.4 714.423 736.36 714.417C736.32 714.41 736.282 714.394 736.25 714.37C725.92 706.71 708.67 707.48 705.63 722.46C705.19 724.62 704.953 726.81 704.92 729.03C704.913 729.39 705.093 729.577 705.46 729.59Z" fill="#333638"/>
<path d="M721.09 883.1C703.38 881.64 687.94 872.08 680.53 855.62C672.73 838.28 674.14 816.32 685.24 800.71C695.72 785.96 713.46 779.53 731.49 781.5C755.03 784.08 771.43 801.48 774.23 824.63C778.24 857.76 755.49 885.93 721.09 883.1ZM696.74 832.95C696.82 851.05 701.9 876.44 724.94 876.57C752.13 876.73 754.59 844.34 753.57 824.96C752.63 807.02 744.75 785.8 722.67 787.92C700.4 790.06 696.66 815.58 696.74 832.95Z" fill="#333638"/>
<path d="M184.05 818.97V879.94C184.05 880.036 184.012 880.127 183.945 880.195C183.877 880.262 183.785 880.3 183.69 880.3L165.31 880.25C164.763 880.25 164.49 879.98 164.49 879.44L164.48 819.35C164.48 818.67 164.14 818.33 163.46 818.33L155.91 818.35C155.855 818.35 155.8 818.339 155.749 818.318C155.698 818.297 155.652 818.266 155.613 818.227C155.574 818.188 155.543 818.142 155.522 818.091C155.501 818.04 155.49 817.985 155.49 817.93L155.52 812.18C155.52 812.063 155.565 811.952 155.646 811.869C155.727 811.786 155.836 811.74 155.95 811.74L163.27 811.77C164.123 811.777 164.54 811.353 164.52 810.5C164.03 793.66 171.3 784.89 187.92 782.83C196.36 781.78 208.43 782.15 213.08 790.76C213.17 790.927 213.199 791.121 213.162 791.308C213.126 791.496 213.026 791.666 212.88 791.79L207.81 796.11C207.47 796.397 207.17 796.36 206.91 796C200.95 787.61 187.02 785.27 184.94 798.53C184.167 803.483 183.88 807.687 184.08 811.14C184.1 811.52 184.303 811.71 184.69 811.71L203.18 811.67C203.433 811.67 203.563 811.797 203.57 812.05L203.6 817.95C203.6 818.223 203.46 818.36 203.18 818.36H184.66C184.253 818.36 184.05 818.563 184.05 818.97Z" fill="#333638"/>
<path d="M32.02 843.45C32.02 844.143 32.24 844.223 32.68 843.69C39.38 835.57 46.0833 827.64 52.79 819.9C58.21 813.647 65.29 810.96 74.03 811.84C74.6033 811.9 74.89 812.22 74.89 812.8L74.88 814.58C74.88 815.22 74.56 815.557 73.92 815.59C68.4133 815.877 63.8867 818.087 60.34 822.22C55.3867 828 50.5 833.75 45.68 839.47C45.5473 839.629 45.473 839.829 45.4693 840.037C45.4657 840.244 45.533 840.446 45.66 840.61C52.4533 849.383 59.2967 858.157 66.19 866.93C69.47 871.11 73.23 874.227 77.47 876.28C79.44 877.23 79.38 877.68 79.17 879.74C79.1492 879.925 79.0729 880.099 78.9513 880.238C78.8297 880.378 78.6687 880.476 78.49 880.52C67.29 883.39 56.06 881.79 48.2 872.19C43.0067 865.85 37.87 859.403 32.79 852.85C32.2433 852.143 31.9733 852.237 31.98 853.13L32.05 879.68C32.05 880.087 31.85 880.29 31.45 880.29L12.88 880.27C12.7633 880.27 12.6514 880.223 12.5689 880.138C12.4864 880.054 12.44 879.939 12.44 879.82C12.4333 854.113 12.42 828.383 12.4 802.63C12.39 793.93 10.63 788.14 0.679993 788.44C0.641076 788.441 0.602295 788.435 0.565948 788.421C0.529602 788.407 0.496442 788.386 0.468445 788.359C0.440448 788.332 0.41818 788.299 0.402985 788.263C0.387789 788.228 0.379982 788.189 0.380005 788.15L0.369995 784.41C0.369995 784.23 0.463327 784.137 0.649994 784.13C11.6567 783.937 18.6633 783.963 21.67 784.21C30.09 784.9 31.73 792.24 31.81 799.5C31.9967 814.347 32.0667 828.997 32.02 843.45Z" fill="#333638"/>
<path d="M289.1 823.05L284.69 784.55C284.683 784.491 284.689 784.431 284.706 784.374C284.724 784.317 284.754 784.265 284.794 784.22C284.834 784.176 284.882 784.14 284.937 784.116C284.991 784.092 285.05 784.08 285.11 784.08H303.74C303.8 784.08 303.859 784.092 303.913 784.116C303.968 784.14 304.016 784.176 304.056 784.22C304.096 784.265 304.126 784.317 304.144 784.374C304.162 784.431 304.167 784.491 304.16 784.55L299.75 823.04C299.738 823.141 299.69 823.234 299.614 823.302C299.539 823.37 299.442 823.408 299.34 823.41L289.52 823.42C289.417 823.421 289.317 823.384 289.239 823.315C289.162 823.247 289.112 823.153 289.1 823.05Z" fill="#333638"/>
<path d="M535.77 853.86L496.68 853.79C496.546 853.79 496.415 853.828 496.301 853.901C496.188 853.973 496.097 854.077 496.04 854.2L484.05 880.06C484.015 880.137 483.957 880.202 483.884 880.246C483.811 880.29 483.726 880.313 483.64 880.31L476.31 880.24C476.289 880.24 476.268 880.235 476.249 880.225C476.23 880.215 476.214 880.2 476.202 880.182C476.19 880.164 476.183 880.144 476.181 880.123C476.179 880.101 476.182 880.08 476.19 880.06L520.11 784.68C520.29 784.28 520.6 784.08 521.04 784.08L526.66 784.09C527.027 784.09 527.283 784.257 527.43 784.59C538.89 811.097 550.35 837.597 561.81 864.09C564.43 870.13 569.4 875.01 575.91 876.47C576.29 876.557 576.477 876.79 576.47 877.17V879.58C576.47 879.947 576.287 880.16 575.92 880.22C560.61 882.84 546.63 877.88 540.19 863.14C538.91 860.207 537.647 857.25 536.4 854.27C536.287 853.997 536.077 853.86 535.77 853.86ZM499.63 846.72C499.608 846.769 499.599 846.822 499.603 846.875C499.607 846.928 499.625 846.979 499.653 847.023C499.682 847.068 499.722 847.105 499.768 847.13C499.815 847.156 499.867 847.17 499.92 847.17H532.79C532.844 847.171 532.897 847.159 532.945 847.134C532.993 847.109 533.034 847.073 533.064 847.028C533.094 846.983 533.112 846.931 533.117 846.877C533.121 846.823 533.112 846.769 533.09 846.72L517.09 809.85C517.067 809.792 517.026 809.741 516.975 809.706C516.923 809.67 516.861 809.65 516.798 809.649C516.735 809.648 516.673 809.666 516.62 809.7C516.567 809.734 516.525 809.782 516.5 809.84L499.63 846.72Z" fill="#333638"/>
<path d="M581.83 804.13C581.86 795.8 580.62 787.63 570.03 788.48C569.988 788.484 569.946 788.479 569.906 788.466C569.866 788.452 569.83 788.43 569.799 788.401C569.767 788.371 569.743 788.336 569.726 788.296C569.709 788.256 569.7 788.213 569.7 788.17L569.64 784.38C569.64 784.31 569.667 784.243 569.716 784.193C569.764 784.142 569.83 784.113 569.9 784.11C576.64 784.037 583.42 784.127 590.24 784.38C600.39 784.76 601.23 793.81 601.23 801.63C601.243 827.71 601.247 853.8 601.24 879.9C601.24 879.996 601.202 880.087 601.135 880.155C601.067 880.222 600.975 880.26 600.88 880.26H582.09C581.981 880.26 581.877 880.217 581.8 880.14C581.723 880.063 581.68 879.959 581.68 879.85C581.66 854.623 581.71 829.383 581.83 804.13Z" fill="#333638"/>
<path d="M395.75 818.36L387.72 818.37C387.619 818.37 387.523 818.33 387.451 818.259C387.38 818.188 387.34 818.091 387.34 817.99L387.38 812.09C387.38 812.035 387.391 811.98 387.411 811.929C387.432 811.878 387.462 811.832 387.5 811.793C387.538 811.754 387.583 811.723 387.633 811.702C387.683 811.681 387.736 811.67 387.79 811.67L395.76 811.71C396.147 811.71 396.34 811.513 396.34 811.12L396.35 799.42C396.35 798.872 396.545 798.347 396.9 797.94L403.47 790.35C403.743 790.037 404.087 789.877 404.5 789.87L415.32 789.86C415.49 789.86 415.652 789.927 415.773 790.045C415.893 790.163 415.96 790.323 415.96 790.49V811.04C415.96 811.224 416.032 811.401 416.161 811.532C416.291 811.663 416.466 811.737 416.65 811.74L431.76 811.76C432.187 811.76 432.4 811.97 432.4 812.39L432.44 817.64C432.44 817.733 432.422 817.826 432.387 817.912C432.352 817.998 432.3 818.076 432.235 818.142C432.17 818.208 432.093 818.26 432.008 818.296C431.923 818.332 431.832 818.35 431.74 818.35H416.5C416.127 818.35 415.94 818.537 415.94 818.91C415.9 834.163 415.957 849.4 416.11 864.62C416.143 868.04 416.86 870.79 418.26 872.87C421.4 877.52 431.03 874.1 434.73 871.75C435.323 871.377 435.777 871.503 436.09 872.13L437.3 874.53C437.633 875.197 437.49 875.74 436.87 876.16C429.243 881.307 420.677 882.88 411.17 880.88C398.93 878.3 396.07 868.37 396.21 857.38C396.377 844.56 396.407 831.737 396.3 818.91C396.3 818.543 396.117 818.36 395.75 818.36Z" fill="#333638"/>
<path d="M126.29 839.57C126.64 831.25 125.16 819.1 115.01 817.29C107.19 815.897 101.727 818.503 98.62 825.11C98.06 826.31 97.65 828.13 97.17 829.59C97.07 829.903 96.8567 830.057 96.53 830.05L89.47 830C89.1033 829.993 88.9067 829.807 88.88 829.44C88.16 819.86 91.18 813.53 101.08 811.52C123.92 806.89 145.83 812.83 145.88 840.13C145.9 853.417 145.933 866.627 145.98 879.76C145.98 879.895 145.926 880.025 145.831 880.121C145.735 880.216 145.605 880.27 145.47 880.27H133.6C133.233 880.27 132.937 880.127 132.71 879.84L128.22 874.14C128.137 874.036 128.032 873.951 127.911 873.894C127.791 873.837 127.658 873.808 127.525 873.81C127.392 873.812 127.261 873.844 127.142 873.905C127.023 873.966 126.92 874.053 126.84 874.16C119.67 883.98 99.98 883.66 91.03 877.07C84.29 872.1 82.81 865.16 83.94 857.12C86.34 840.12 113.51 840.16 125.74 840.1C126.093 840.093 126.277 839.917 126.29 839.57ZM125.92 846.74C118.92 846.63 107.59 847.36 104.86 855.64C103.14 860.84 103.24 869.77 108.52 873.02C114.43 876.65 121.96 872.87 125.15 867.3C125.923 865.94 126.31 864.23 126.31 862.17C126.31 857.163 126.317 852.16 126.33 847.16C126.33 847.05 126.287 846.945 126.211 846.867C126.134 846.788 126.03 846.743 125.92 846.74Z" fill="#333638"/>
<path d="M252.14 839.66C252.3 827.78 249.6 814.22 233.72 817.37C229.46 818.217 226.437 820.69 224.65 824.79C223.817 826.717 223.383 828.05 223.35 828.79C223.31 829.663 222.853 830.1 221.98 830.1H215.96C215.087 830.1 214.643 829.667 214.63 828.8C214.49 819.95 216.7 813.84 226.05 811.72C236.15 809.42 252.16 809.01 260.91 815.48C268.41 821.04 271.44 829.27 271.55 838.38C271.71 852.207 271.79 866.06 271.79 879.94C271.79 880.033 271.753 880.122 271.687 880.188C271.622 880.253 271.533 880.29 271.44 880.29H259.47C259.103 880.29 258.807 880.147 258.58 879.86L254 874.06C253.927 873.969 253.835 873.896 253.729 873.846C253.624 873.796 253.509 873.77 253.393 873.771C253.276 873.772 253.161 873.8 253.057 873.851C252.953 873.903 252.861 873.978 252.79 874.07C245.22 883.76 229.26 883.28 219.23 878.48C213.29 875.64 210.05 869.9 209.39 863.35C207.08 840.52 236.08 840.09 251.59 840.2C251.957 840.2 252.14 840.02 252.14 839.66ZM230.02 858.24C229.04 863.17 229.86 870.22 234.45 873.14C240.16 876.76 247.99 872.58 251.01 867.34C251.797 865.96 252.197 864.227 252.21 862.14C252.237 857.147 252.233 852.16 252.2 847.18C252.2 847.073 252.158 846.97 252.083 846.894C252.009 846.817 251.907 846.773 251.8 846.77C242.92 846.53 232.15 847.58 230.02 858.24Z" fill="#333638"/>
<path d="M356.69 839.69C357.31 828.18 354 814.79 339.45 816.91C332.74 817.89 329.05 823.21 327.8 829.46C327.76 829.649 327.657 829.819 327.507 829.939C327.357 830.06 327.171 830.124 326.98 830.12L319.78 830.02C319.645 830.02 319.515 829.966 319.419 829.871C319.324 829.775 319.27 829.645 319.27 829.51C319.26 819.74 321.06 813.77 331.49 811.54C340.697 809.567 349.533 809.677 358 811.87C370.23 815.03 376.42 826.96 376.44 839.63C376.46 852.877 376.45 866.2 376.41 879.6C376.41 879.778 376.34 879.948 376.217 880.074C376.093 880.2 375.925 880.27 375.75 880.27H364.11C363.938 880.27 363.769 880.231 363.615 880.157C363.461 880.082 363.326 879.974 363.22 879.84L358.61 873.99C358.548 873.91 358.469 873.846 358.378 873.801C358.288 873.756 358.188 873.732 358.087 873.731C357.986 873.73 357.887 873.752 357.795 873.795C357.704 873.838 357.624 873.902 357.56 873.98C349.5 883.86 332.98 883.58 322.76 877.86C318.013 875.2 315.21 870.967 314.35 865.16C310.73 840.63 339.35 840.07 356.13 840.21C356.483 840.217 356.67 840.043 356.69 839.69ZM335.65 855.06C333.72 860.01 333.7 867.54 337.33 871.75C342.47 877.71 352.42 873.05 355.61 867.41C356.423 865.977 356.84 864.19 356.86 862.05C356.913 857.11 356.903 852.16 356.83 847.2C356.83 846.847 356.653 846.677 356.3 846.69C349.35 846.88 338.76 847.1 335.65 855.06Z" fill="#333638"/>
<path d="M848.68 818.09C852.52 814.283 856.957 811.9 861.99 810.94C869.9 809.44 880.18 810.17 886.65 814.75C893.85 819.84 895.87 828.61 895.88 837.13C895.893 851.377 895.88 865.523 895.84 879.57C895.84 879.756 895.766 879.934 895.635 880.065C895.504 880.196 895.326 880.27 895.14 880.27L877.24 880.24C877.113 880.24 876.986 880.215 876.869 880.167C876.751 880.119 876.644 880.048 876.554 879.959C876.464 879.87 876.393 879.764 876.344 879.648C876.295 879.531 876.27 879.406 876.27 879.28C876.33 864.84 876.31 850.373 876.21 835.88C876.16 828.08 874.23 818.36 864.76 817.63C860.033 817.263 855.74 818.94 851.88 822.66C851.66 822.867 851.597 823.117 851.69 823.41C853.05 827.497 853.737 831.987 853.75 836.88C853.777 851.22 853.793 865.467 853.8 879.62C853.8 879.712 853.782 879.802 853.747 879.887C853.712 879.971 853.661 880.047 853.597 880.112C853.533 880.176 853.457 880.226 853.373 880.261C853.29 880.295 853.2 880.311 853.11 880.31L835.02 880.25C834.916 880.249 834.814 880.227 834.718 880.187C834.623 880.146 834.537 880.088 834.464 880.015C834.392 879.941 834.335 879.854 834.296 879.759C834.258 879.664 834.239 879.563 834.24 879.46C834.34 864.407 834.277 849.297 834.05 834.13C833.85 820.91 824.33 811.42 812.07 822C811.863 822.173 811.76 822.393 811.76 822.66V879.71C811.76 880.11 811.563 880.31 811.17 880.31L792.76 880.25C792.614 880.25 792.474 880.191 792.371 880.086C792.268 879.981 792.21 879.839 792.21 879.69C792.183 862.91 792.18 846.057 792.2 829.13C792.21 820.99 790.01 816.34 781.13 816.08C780.55 816.06 780.257 815.76 780.25 815.18L780.21 812.66C780.197 812.1 780.47 811.817 781.03 811.81C786.43 811.697 791.803 811.717 797.15 811.87C801.1 811.98 805.64 813.26 807.72 816.91C807.773 817.002 807.846 817.081 807.933 817.142C808.02 817.203 808.118 817.245 808.222 817.264C808.326 817.283 808.432 817.279 808.534 817.253C808.635 817.226 808.73 817.177 808.81 817.11C820.23 807.6 836.93 808.09 847.89 818.1C848.157 818.347 848.42 818.343 848.68 818.09Z" fill="#333638"/>
<path d="M932.3 816.75C941.74 809.36 960.42 805.81 966.35 819.47C966.396 819.575 966.405 819.692 966.376 819.803C966.347 819.913 966.281 820.011 966.19 820.08L959.29 825.22C959.172 825.305 959.026 825.341 958.883 825.321C958.739 825.3 958.609 825.225 958.52 825.11C952.78 817.74 943.45 818.96 936.35 823.15C935.583 823.603 935.227 824.273 935.28 825.16C936.43 843.23 935.78 861.66 935.76 879.7C935.76 879.857 935.698 880.007 935.587 880.117C935.476 880.228 935.327 880.29 935.17 880.29L916.99 880.27C916.78 880.27 916.58 880.187 916.431 880.039C916.283 879.891 916.2 879.69 916.2 879.48C916.16 862.647 916.167 845.697 916.22 828.63C916.25 821.25 913.65 815.91 905.25 816.09C904.603 816.103 904.277 815.787 904.27 815.14L904.24 812.85C904.233 812.203 904.55 811.867 905.19 811.84C911.75 811.573 917.683 811.593 922.99 811.9C926.603 812.107 929.467 813.687 931.58 816.64C931.787 816.927 932.027 816.963 932.3 816.75Z" fill="#333638"/>
<path d="M1014.02 839.66C1014.38 831.01 1012.65 817.93 1001.62 816.93C992.55 816.1 986.75 820.6 985.07 829.5C984.997 829.88 984.767 830.07 984.38 830.07L977.26 830.08C976.92 830.08 976.737 829.91 976.71 829.57C976.19 822.8 977.55 815.33 984.76 812.67C991.59 810.16 999.82 810.05 1007 810.43C1024.02 811.33 1033.41 822.68 1033.57 839.13C1033.7 852.677 1033.76 866.22 1033.73 879.76C1033.73 880.113 1033.55 880.29 1033.2 880.29H1021.38C1021.02 880.29 1020.73 880.147 1020.51 879.86L1015.99 874.11C1015.91 874.011 1015.81 873.93 1015.7 873.874C1015.59 873.819 1015.46 873.789 1015.34 873.788C1015.21 873.787 1015.09 873.815 1014.98 873.869C1014.86 873.923 1014.77 874.002 1014.69 874.1C1007.21 883.52 992.04 883.27 981.99 878.88C973.76 875.28 969.75 866.05 971.68 857.24C975.46 840.04 998.75 840.17 1013.49 840.17C1013.83 840.17 1014.01 840 1014.02 839.66ZM1014 862.73C1014.21 857.61 1014.23 852.47 1014.06 847.31C1014.05 846.97 1013.87 846.794 1013.53 846.78C1006.11 846.51 995.61 847.54 992.63 855.56C990.85 860.38 991.22 868.29 994.97 872.08C1000.05 877.23 1009.13 873.34 1012.55 867.96C1013.44 866.573 1013.92 864.83 1014 862.73Z" fill="#333638"/>
<path d="M1069.64 816.65C1073.63 813.47 1078.17 811.517 1083.24 810.79C1100.37 808.34 1118.97 812.78 1119.26 833.89C1119.47 849.223 1119.57 864.557 1119.56 879.89C1119.56 880.137 1119.43 880.26 1119.18 880.26L1100.48 880.28C1100.35 880.28 1100.22 880.227 1100.13 880.134C1100.03 880.04 1099.98 879.913 1099.98 879.78C1100.03 865.653 1100.02 851.517 1099.96 837.37C1099.93 831.83 1099.4 827.11 1096.71 822.94C1091.93 815.53 1080.38 816.91 1073.81 820.64C1073.59 820.768 1073.4 820.953 1073.28 821.176C1073.15 821.399 1073.08 821.652 1073.08 821.91L1073.04 879.87C1073.04 879.923 1073.03 879.976 1073.01 880.026C1072.99 880.075 1072.96 880.119 1072.92 880.157C1072.88 880.194 1072.84 880.223 1072.79 880.243C1072.74 880.262 1072.69 880.271 1072.64 880.27L1054.02 880.22C1053.88 880.22 1053.74 880.164 1053.65 880.065C1053.55 879.965 1053.49 879.831 1053.49 879.69C1053.48 863.163 1053.47 846.643 1053.46 830.13C1053.45 822.43 1051.97 815.74 1042.38 816.09C1041.89 816.11 1041.64 815.873 1041.62 815.38L1041.52 812.69C1041.52 812.586 1041.53 812.483 1041.57 812.385C1041.6 812.288 1041.66 812.199 1041.73 812.123C1041.8 812.046 1041.89 811.985 1041.98 811.942C1042.07 811.898 1042.18 811.874 1042.28 811.87C1049.45 811.603 1055.35 811.6 1060 811.86C1063.65 812.067 1066.61 813.633 1068.9 816.56C1069.12 816.84 1069.37 816.87 1069.64 816.65Z" fill="#333638"/>
<path d="M660.81 834.72H620.17C619.811 834.72 619.52 835.011 619.52 835.37V848.01C619.52 848.369 619.811 848.66 620.17 848.66H660.81C661.169 848.66 661.46 848.369 661.46 848.01V835.37C661.46 835.011 661.169 834.72 660.81 834.72Z" fill="#333638"/>
<path d="M761.051 908.896C763.425 908.896 765.351 906.971 765.351 904.596C765.351 902.222 763.425 900.296 761.051 900.296C758.676 900.296 756.751 902.222 756.751 904.596C756.751 906.971 758.676 908.896 761.051 908.896Z" fill="#A69154"/>
<path d="M190.461 918.016C192.841 918.016 194.771 916.087 194.771 913.706C194.771 911.326 192.841 909.396 190.461 909.396C188.08 909.396 186.151 911.326 186.151 913.706C186.151 916.087 188.08 918.016 190.461 918.016Z" fill="#A69154"/>
<path d="M201.951 918.056C204.348 918.056 206.291 916.113 206.291 913.716C206.291 911.32 204.348 909.376 201.951 909.376C199.554 909.376 197.611 911.32 197.611 913.716C197.611 916.113 199.554 918.056 201.951 918.056Z" fill="#A69154"/>
<path d="M398.021 949.396C398.201 944.376 399.471 927.926 389.251 930.596C388.817 930.71 388.594 930.543 388.581 930.096L388.491 927.586C388.486 927.397 388.551 927.212 388.673 927.068C388.795 926.924 388.965 926.831 389.151 926.806C393.277 926.246 396.741 927.16 399.541 929.546C405.911 934.966 405.481 941.876 405.221 949.256C405.218 949.342 405.233 949.428 405.264 949.508C405.294 949.588 405.341 949.66 405.401 949.722C405.461 949.784 405.532 949.833 405.611 949.866C405.69 949.899 405.775 949.917 405.861 949.916C408.534 949.91 411.224 949.896 413.931 949.876C417.571 949.846 420.061 949.096 420.231 945.086C420.471 939.44 419.987 934.093 418.781 929.046C418.766 928.985 418.763 928.921 418.774 928.858C418.784 928.795 418.806 928.735 418.84 928.681C418.873 928.627 418.917 928.581 418.969 928.544C419.02 928.507 419.079 928.481 419.141 928.466L426.791 926.716C427.151 926.636 427.327 926.78 427.321 927.146C427.287 932.873 427.277 938.73 427.291 944.716C427.301 948.506 429.511 949.776 433.111 949.876C436.657 949.976 440.194 949.983 443.721 949.896C444.061 949.89 444.187 949.723 444.101 949.396C439.871 933.626 463.891 926.736 465.971 940.336C466.191 941.783 466.167 944.823 465.901 949.456C465.887 949.75 466.024 949.896 466.311 949.896L469.491 949.966C469.605 949.966 469.714 949.921 469.795 949.841C469.875 949.76 469.921 949.651 469.921 949.536C469.914 945.463 469.877 941.32 469.811 937.106C469.641 925.906 451.461 928.926 445.371 931.596C445.337 931.612 445.3 931.618 445.264 931.613C445.227 931.609 445.192 931.595 445.163 931.572C445.134 931.549 445.112 931.519 445.1 931.485C445.087 931.45 445.084 931.413 445.091 931.376L446.021 926.816C446.039 926.726 446.08 926.641 446.142 926.571C446.203 926.501 446.282 926.448 446.371 926.416C455.271 923.336 477.721 921.636 477.311 936.976C477.204 941.19 477.127 945.346 477.081 949.446C477.074 949.746 477.221 949.9 477.521 949.906C482.274 949.96 487.031 949.946 491.791 949.866C494.297 949.826 495.697 948.32 495.991 945.346C496.551 939.666 496.274 928.88 495.161 912.986C495.147 912.766 495.251 912.633 495.471 912.586L503.011 910.866C503.042 910.859 503.075 910.858 503.106 910.865C503.138 910.872 503.168 910.887 503.193 910.907C503.218 910.927 503.238 910.953 503.252 910.983C503.265 911.012 503.272 911.044 503.271 911.076C503.277 922.09 503.281 933.176 503.281 944.336C503.281 952.37 499.364 956.366 491.531 956.326C470.617 956.22 449.701 956.16 428.781 956.146C427.654 956.146 426.141 955.583 424.241 954.456C424.106 954.377 423.952 954.333 423.795 954.33C423.637 954.326 423.481 954.363 423.341 954.436C421.187 955.556 419.751 956.12 419.031 956.126C405.364 956.18 391.707 956.186 378.061 956.146C378.029 956.146 377.998 956.139 377.971 956.125C377.943 956.11 377.918 956.09 377.9 956.064C377.881 956.039 377.869 956.01 377.864 955.979C377.859 955.948 377.861 955.916 377.871 955.886L379.611 950.186C379.664 950.006 379.791 949.913 379.991 949.906L397.511 949.896C397.844 949.896 398.014 949.73 398.021 949.396ZM457.901 936.966C452.481 934.896 449.501 943.026 449.881 947.006C449.951 947.728 450.277 948.401 450.799 948.903C451.322 949.405 452.007 949.705 452.731 949.746L457.171 949.986C458.831 950.08 459.607 949.296 459.501 947.636C459.387 945.863 459.371 943.35 459.451 940.096C459.484 938.416 458.967 937.373 457.901 936.966Z" fill="#A69154"/>
<path d="M897.751 949.436C893.964 943.123 890.151 936.82 886.311 930.526C884.031 926.786 881.241 923.756 878.381 920.456C877.894 919.896 878.021 919.616 878.761 919.616L886.621 919.586C886.786 919.586 886.948 919.63 887.092 919.712C887.235 919.795 887.356 919.913 887.441 920.056L902.811 945.846C903.404 946.84 903.707 946.756 903.721 945.596C903.767 938.743 903.777 931.97 903.751 925.276C903.731 921.316 902.771 917.556 902.131 913.626C902.077 913.28 902.221 913.07 902.561 912.996L910.241 911.346C910.607 911.266 910.794 911.413 910.801 911.786C910.854 926.04 910.861 935.39 910.821 939.836C910.781 943.936 910.471 949.766 916.031 949.866C923.491 950.006 928.157 950 930.031 949.846C933.121 949.606 933.971 946.826 934.071 943.976C934.344 935.85 934.057 925.513 933.211 912.966C933.197 912.766 933.291 912.643 933.491 912.596L941.011 910.866C941.042 910.859 941.076 910.859 941.108 910.866C941.14 910.873 941.17 910.887 941.196 910.907C941.222 910.927 941.243 910.953 941.257 910.982C941.272 911.011 941.28 911.044 941.281 911.076C941.274 922.343 941.261 933.683 941.241 945.096C941.227 952.39 937.574 956.066 930.281 956.126C924.201 956.173 918.117 956.166 912.031 956.106C910.811 956.093 909.287 955.506 907.461 954.346C907.161 954.153 906.857 954.156 906.551 954.356C904.804 955.503 903.464 956.08 902.531 956.086C895.144 956.166 887.731 956.196 880.291 956.176C880.252 956.175 880.215 956.165 880.182 956.145C880.149 956.126 880.121 956.099 880.101 956.066C880.081 956.033 880.07 955.996 880.068 955.957C880.066 955.919 880.074 955.881 880.091 955.846L882.861 950.226C882.967 950.02 883.134 949.916 883.361 949.916L897.481 949.906C897.854 949.906 897.944 949.75 897.751 949.436Z" fill="#A69154"/>
<path d="M520.221 911.366C518.791 926.126 519.421 941.176 519.401 955.906C519.401 955.978 519.372 956.047 519.322 956.097C519.271 956.148 519.202 956.176 519.131 956.176L512.551 956.166C512.479 956.166 512.41 956.138 512.36 956.087C512.309 956.037 512.281 955.968 512.281 955.896C512.267 945.036 512.267 934.12 512.281 923.146C512.291 919.416 511.641 915.726 511.221 912.056C511.201 911.843 511.297 911.73 511.511 911.716L519.981 911.116C520.154 911.103 520.234 911.186 520.221 911.366Z" fill="#A69154"/>
<path d="M603.841 920.606C603.801 917.966 603.541 915.356 603.121 912.806C603.001 912.106 603.294 911.733 604.001 911.686L611.241 911.156C611.867 911.11 612.141 911.4 612.061 912.026C611.681 914.926 611.281 918.066 611.271 921.116C611.237 932.77 611.234 944.34 611.261 955.826C611.261 956.053 611.144 956.166 610.911 956.166L604.411 956.176C604.323 956.176 604.239 956.142 604.177 956.08C604.115 956.018 604.081 955.934 604.081 955.846C604.074 944.16 603.994 932.413 603.841 920.606Z" fill="#A69154"/>
<path d="M805.551 919.756C807.925 919.756 809.851 917.831 809.851 915.456C809.851 913.082 807.925 911.156 805.551 911.156C803.176 911.156 801.251 913.082 801.251 915.456C801.251 917.831 803.176 919.756 805.551 919.756Z" fill="#A69154"/>
<path d="M422.451 919.776C424.831 919.776 426.761 917.847 426.761 915.466C426.761 913.086 424.831 911.156 422.451 911.156C420.07 911.156 418.141 913.086 418.141 915.466C418.141 917.847 420.07 919.776 422.451 919.776Z" fill="#A69154"/>
<path d="M763.401 952.596C758.811 958.076 750.511 956.796 745.841 952.486C745.581 952.246 745.324 952.246 745.071 952.486C741.961 955.456 739.961 956.146 735.391 956.146C708.137 956.173 680.884 956.173 653.631 956.146C643.541 956.146 640.361 953.246 640.311 943.416C640.277 937.036 640.267 930.656 640.281 924.276C640.291 920.806 639.601 917.266 639.241 913.706C639.201 913.3 639.381 913.05 639.781 912.956L646.991 911.356C647.061 911.341 647.133 911.342 647.203 911.358C647.273 911.374 647.338 911.406 647.394 911.45C647.449 911.494 647.494 911.55 647.525 911.613C647.555 911.677 647.571 911.746 647.571 911.816C647.497 922.936 647.507 934.066 647.601 945.206C647.631 949.276 650.621 949.856 654.161 949.866C681.207 949.9 708.247 949.9 735.281 949.866C738.074 949.866 739.541 948.273 739.681 945.086C739.754 943.273 739.784 938.82 739.771 931.726C739.771 931.226 740.014 930.92 740.501 930.806L746.151 929.486C746.657 929.366 746.911 929.566 746.911 930.086V947.076C746.91 947.223 746.943 947.368 747.005 947.502C747.067 947.635 747.158 947.752 747.271 947.846C750.401 950.416 757.801 951.666 758.031 945.706C758.224 940.966 758.301 936.226 758.261 931.486C758.261 931.335 758.313 931.189 758.407 931.071C758.502 930.953 758.633 930.87 758.781 930.836L764.811 929.436C765.164 929.356 765.341 929.496 765.341 929.856L765.351 946.846C765.357 947.106 765.477 947.346 765.711 947.566C768.544 950.186 771.484 950.78 774.531 949.346C778.631 947.406 776.091 932.596 775.281 929.176C775.262 929.097 775.259 929.014 775.272 928.934C775.285 928.853 775.315 928.776 775.359 928.707C775.403 928.638 775.46 928.578 775.527 928.532C775.595 928.485 775.671 928.453 775.751 928.436L783.301 926.756C783.372 926.741 783.446 926.742 783.517 926.759C783.588 926.776 783.654 926.808 783.711 926.853C783.767 926.898 783.813 926.955 783.844 927.019C783.875 927.084 783.891 927.155 783.891 927.226C783.891 933.04 783.884 938.913 783.871 944.846C783.861 948.776 786.261 949.786 789.871 949.906C794.041 950.046 800.431 951.016 800.861 945.826C801.354 939.933 800.947 934.273 799.641 928.846C799.623 928.77 799.635 928.689 799.677 928.621C799.718 928.554 799.784 928.505 799.861 928.486L807.941 926.686C808.147 926.64 808.251 926.72 808.251 926.926C808.271 933.113 808.304 939.086 808.351 944.846C808.401 951.616 816.541 949.936 820.911 949.876C824.581 949.826 826.941 948.756 826.951 944.796C826.957 940.503 827.001 935.993 827.081 931.266C827.081 931.06 827.184 930.933 827.391 930.886L833.701 929.416C833.987 929.35 834.131 929.463 834.131 929.756L834.141 946.856C834.141 947.183 834.261 947.456 834.501 947.676C837.971 950.796 845.601 951.456 845.611 945.096C845.611 940.356 845.591 935.79 845.551 931.396C845.55 931.27 845.593 931.146 845.673 931.046C845.753 930.946 845.865 930.876 845.991 930.846L852.291 929.446C852.334 929.438 852.379 929.438 852.422 929.449C852.464 929.459 852.504 929.479 852.539 929.507C852.573 929.534 852.601 929.569 852.62 929.609C852.64 929.649 852.65 929.692 852.651 929.736L852.681 946.826C852.681 947.173 852.811 947.466 853.071 947.706C856.631 950.966 863.861 951.316 864.051 944.846C864.211 939.366 863.744 934.093 862.651 929.026C862.584 928.726 862.701 928.54 863.001 928.466L870.701 926.726C870.753 926.716 870.807 926.718 870.859 926.73C870.911 926.743 870.959 926.767 871.001 926.8C871.043 926.833 871.077 926.875 871.101 926.923C871.125 926.971 871.139 927.023 871.141 927.076C871.201 932.356 871.211 937.733 871.171 943.206C871.144 947.24 870.637 950.083 869.651 951.736C865.881 958.016 856.301 957.056 851.341 952.566C851.087 952.34 850.854 952.356 850.641 952.616C846.141 958.186 837.671 956.696 832.951 952.356C832.677 952.103 832.421 952.12 832.181 952.406C830.174 954.78 827.961 956 825.541 956.066C817.811 956.286 809.901 957.106 805.221 954.506C805.073 954.424 804.908 954.379 804.741 954.375C804.573 954.372 804.408 954.41 804.261 954.486C802.391 955.436 800.871 956.026 798.691 956.096C792.241 956.286 785.131 957.046 780.841 954.486C780.534 954.306 780.224 954.293 779.911 954.446C774.111 957.326 768.821 956.693 764.041 952.546C763.807 952.346 763.594 952.363 763.401 952.596Z" fill="#A69154"/>
<path d="M755.311 919.776C757.691 919.776 759.621 917.847 759.621 915.466C759.621 913.086 757.691 911.156 755.311 911.156C752.93 911.156 751.001 913.086 751.001 915.466C751.001 917.847 752.93 919.776 755.311 919.776Z" fill="#A69154"/>
<path d="M766.837 919.676C769.273 919.655 771.231 917.753 771.211 915.428C771.19 913.103 769.199 911.235 766.764 911.257C764.328 911.278 762.371 913.18 762.391 915.505C762.411 917.83 764.402 919.698 766.837 919.676Z" fill="#A69154"/>
<path d="M794.041 919.736C796.41 919.736 798.331 917.816 798.331 915.446C798.331 913.077 796.41 911.156 794.041 911.156C791.671 911.156 789.751 913.077 789.751 915.446C789.751 917.816 791.671 919.736 794.041 919.736Z" fill="#A69154"/>
<path d="M199.001 925.336L198.691 923.366C198.617 922.906 198.807 922.626 199.261 922.526L206.621 920.956C207.067 920.863 207.291 921.046 207.291 921.506C207.271 929.033 207.247 936.726 207.221 944.586C207.211 949.146 210.071 949.906 214.111 949.906C240.651 949.886 267.184 949.876 293.711 949.876C298.091 949.876 300.211 949.046 300.241 944.336C300.287 937.903 299.814 932.683 298.821 928.676C298.754 928.396 298.861 928.223 299.141 928.156L307.011 926.396C307.06 926.386 307.111 926.386 307.16 926.398C307.21 926.409 307.255 926.43 307.295 926.461C307.334 926.492 307.366 926.531 307.387 926.575C307.409 926.619 307.421 926.667 307.421 926.716C307.427 932.723 307.441 938.933 307.461 945.346C307.471 948.666 309.881 949.746 312.951 949.876C317.077 950.056 320.107 950.043 322.041 949.836C325.421 949.466 325.971 946.756 326.011 943.656C326.077 939.456 326.137 935.406 326.191 931.506C326.191 931.126 326.374 930.893 326.741 930.806L332.761 929.416C333.087 929.343 333.251 929.476 333.251 929.816L333.271 947.086C333.271 947.393 333.391 947.643 333.631 947.836C336.811 950.446 343.331 951.416 344.541 946.526C345.431 942.956 344.771 935.516 344.751 931.226C344.751 931.139 344.78 931.053 344.835 930.984C344.889 930.915 344.965 930.867 345.051 930.846L351.531 929.386C351.563 929.38 351.596 929.381 351.628 929.389C351.659 929.397 351.689 929.412 351.714 929.432C351.739 929.452 351.758 929.477 351.772 929.506C351.785 929.534 351.792 929.565 351.791 929.596L351.801 946.846C351.801 947.286 351.977 947.643 352.331 947.916C354.844 949.883 357.557 950.426 360.471 949.546C365.121 948.136 362.521 932.606 361.811 929.156C361.793 929.079 361.791 928.999 361.805 928.92C361.818 928.842 361.847 928.767 361.89 928.7C361.933 928.633 361.989 928.575 362.054 928.53C362.119 928.485 362.193 928.453 362.271 928.436L369.661 926.746C370.054 926.66 370.254 926.816 370.261 927.216C370.287 932.116 370.297 937.036 370.291 941.976C370.284 946.263 369.994 949.14 369.421 950.606C366.451 958.156 355.451 957.196 350.341 952.436C350.181 952.283 350.031 952.293 349.891 952.466C345.351 958.136 336.761 956.796 332.051 952.366C331.784 952.113 331.534 952.123 331.301 952.396C329.227 954.79 327.057 956.016 324.791 956.076C316.791 956.286 308.831 957.146 304.251 954.416C304.114 954.335 303.958 954.291 303.798 954.289C303.639 954.287 303.481 954.328 303.341 954.406C301.341 955.566 299.821 956.146 298.781 956.146C268.694 956.18 238.611 956.176 208.531 956.136C206.551 956.136 204.384 955.096 202.031 953.016C201.916 952.914 201.776 952.846 201.626 952.819C201.475 952.793 201.321 952.809 201.181 952.866C192.461 956.436 181.931 955.316 180.381 944.066C178.611 931.136 186.841 925.916 198.561 925.866C198.914 925.866 199.061 925.69 199.001 925.336ZM187.791 943.886C189.511 949.916 194.721 949.246 199.621 948.176C200.041 948.09 200.251 947.83 200.251 947.396V931.106C200.251 930.753 200.074 930.566 199.721 930.546C191.181 930.176 185.131 934.616 187.791 943.886Z" fill="#A69154"/>
<path d="M561.341 931.196C563.71 931.196 565.631 929.276 565.631 926.906C565.631 924.537 563.71 922.616 561.341 922.616C558.971 922.616 557.051 924.537 557.051 926.906C557.051 929.276 558.971 931.196 561.341 931.196Z" fill="#A69154"/>
<path d="M572.851 931.206C575.22 931.206 577.141 929.286 577.141 926.916C577.141 924.547 575.22 922.626 572.851 922.626C570.481 922.626 568.561 924.547 568.561 926.916C568.561 929.286 570.481 931.206 572.851 931.206Z" fill="#A69154"/>
<path d="M595.021 926.856C595.087 931.056 595.101 935.336 595.061 939.696C595.007 945.39 594.814 948.806 594.481 949.946C593.267 954.113 589.947 956.193 584.521 956.186C574.821 956.166 565.114 956.156 555.401 956.156C550.901 956.156 547.721 955.69 545.861 954.756C537.551 950.606 537.261 939.326 541.071 931.786C541.161 931.609 541.3 931.459 541.471 931.355C541.642 931.251 541.839 931.196 542.041 931.196L547.271 931.226C547.34 931.227 547.408 931.248 547.467 931.285C547.526 931.322 547.573 931.374 547.603 931.435C547.634 931.497 547.646 931.565 547.638 931.633C547.631 931.7 547.604 931.764 547.561 931.816C542.351 938.406 543.081 949.826 553.781 949.886C563.054 949.94 572.327 949.943 581.601 949.896C585.441 949.876 587.831 949.006 587.971 944.846C588.177 939.06 587.704 933.716 586.551 928.816C586.543 928.784 586.542 928.751 586.548 928.718C586.553 928.686 586.565 928.655 586.583 928.627C586.601 928.599 586.624 928.575 586.651 928.556C586.678 928.537 586.708 928.524 586.741 928.516L594.801 926.676C594.827 926.67 594.855 926.67 594.882 926.677C594.909 926.683 594.933 926.695 594.955 926.713C594.976 926.73 594.993 926.752 595.004 926.777C595.016 926.802 595.021 926.829 595.021 926.856Z" fill="#A69154"/>
<path d="M614.791 968.726C620.921 966.646 623.991 962.116 624.021 955.796C624.034 951.35 624.041 946.903 624.041 942.456C624.041 937.756 623.431 933.546 622.621 929.046C622.596 928.909 622.625 928.767 622.702 928.651C622.778 928.536 622.896 928.455 623.031 928.426L630.431 926.776C630.891 926.676 631.121 926.86 631.121 927.326C631.161 936.033 631.211 944.623 631.271 953.096C631.331 962.476 625.261 969.186 616.421 971.376C615.954 971.496 615.584 971.353 615.311 970.946L614.471 969.686C614.416 969.605 614.381 969.513 614.368 969.416C614.355 969.319 614.364 969.221 614.395 969.128C614.426 969.035 614.478 968.951 614.546 968.881C614.615 968.812 614.698 968.759 614.791 968.726Z" fill="#A69154"/>
<path d="M883.111 966.896L887.371 966.756C888.111 966.73 888.704 967.016 889.151 967.616L889.951 968.706C890.397 969.306 890.247 969.606 889.501 969.606L876.521 969.586C876.014 969.58 875.764 969.326 875.771 968.826L875.791 967.796C875.791 967.283 876.051 967.01 876.571 966.976L877.841 966.906C877.997 966.895 878.144 966.829 878.256 966.719C878.368 966.609 878.437 966.463 878.451 966.306C878.931 960.966 883.301 958.376 888.071 961.366C888.183 961.436 888.269 961.54 888.316 961.662C888.363 961.785 888.368 961.92 888.331 962.046L887.971 963.286C887.956 963.339 887.93 963.387 887.893 963.427C887.856 963.467 887.811 963.498 887.759 963.517C887.708 963.536 887.652 963.544 887.597 963.538C887.542 963.533 887.488 963.515 887.441 963.486C886.627 962.973 885.741 962.636 884.781 962.476C884.335 962.404 883.879 962.493 883.494 962.728C883.109 962.963 882.82 963.328 882.681 963.756L882.091 965.536C881.784 966.476 882.124 966.93 883.111 966.896Z" fill="#A69154"/>
<path d="M292.411 971.716C294.785 971.716 296.711 969.791 296.711 967.416C296.711 965.042 294.785 963.116 292.411 963.116C290.036 963.116 288.111 965.042 288.111 967.416C288.111 969.791 290.036 971.716 292.411 971.716Z" fill="#A69154"/>
<path d="M303.921 971.686C306.284 971.686 308.201 969.77 308.201 967.406C308.201 965.043 306.284 963.126 303.921 963.126C301.557 963.126 299.641 965.043 299.641 967.406C299.641 969.77 301.557 971.686 303.921 971.686Z" fill="#A69154"/>
<path d="M605.861 1000.99C605.841 1001.39 605.794 1001.82 605.721 1002.26C605.698 1002.4 605.632 1002.53 605.532 1002.64C605.431 1002.75 605.302 1002.82 605.161 1002.85C604.781 1002.92 604.394 1002.93 604.001 1002.88C603.845 1002.86 603.699 1002.79 603.583 1002.68C603.467 1002.58 603.386 1002.44 603.351 1002.29C601.017 992.606 594.991 988.803 585.271 990.877C574.301 993.217 573.421 1009.36 575.351 1018.31C577.137 1026.55 581.751 1030.8 589.191 1031.04C595.791 1031.24 601.461 1027.86 604.611 1022.16C604.804 1021.8 605.071 1021.74 605.411 1021.96L606.881 1022.93C607.207 1023.14 607.274 1023.42 607.081 1023.77C603.921 1029.44 599.154 1032.77 592.781 1033.77C556.901 1039.34 556.741 988.836 586.091 987.546C589.477 987.393 593.117 987.797 597.011 988.757C603.244 990.297 606.194 994.373 605.861 1000.99Z" fill="#A69154"/>
<path d="M193.231 1011.88V1029.31C193.231 1029.61 193.384 1029.76 193.691 1029.77C197.264 1029.85 200.791 1029.93 204.271 1030C209.844 1030.1 213.587 1027.71 215.501 1022.81C215.561 1022.65 215.677 1022.52 215.827 1022.44C215.978 1022.36 216.153 1022.33 216.321 1022.37L217.021 1022.52C217.111 1022.54 217.197 1022.58 217.271 1022.63C217.345 1022.69 217.407 1022.76 217.451 1022.84C217.496 1022.92 217.522 1023.01 217.529 1023.1C217.536 1023.2 217.523 1023.29 217.491 1023.38C215.581 1028.7 215.441 1032.83 208.501 1032.85C200.514 1032.87 192.541 1032.86 184.581 1032.83C184.501 1032.83 184.425 1032.79 184.369 1032.74C184.312 1032.68 184.281 1032.61 184.281 1032.53C184.294 1020.24 184.281 1007.93 184.241 995.596C184.234 992.276 182.597 990.656 179.331 990.736C179.242 990.738 179.154 990.721 179.071 990.688C178.989 990.655 178.914 990.606 178.85 990.544C178.787 990.481 178.737 990.407 178.703 990.325C178.668 990.243 178.651 990.155 178.651 990.066V989.716C178.657 989.056 178.987 988.726 179.641 988.726C189.754 988.7 199.881 988.71 210.021 988.756C215.791 988.776 215.181 994.966 214.931 999.476C214.925 999.581 214.881 999.679 214.806 999.75C214.731 999.821 214.632 999.859 214.531 999.856L213.351 999.816C213.224 999.814 213.103 999.761 213.014 999.67C212.925 999.579 212.873 999.456 212.871 999.326C212.761 992.866 208.731 991.856 202.981 991.786C199.827 991.746 196.684 991.746 193.551 991.786C193.337 991.793 193.231 991.9 193.231 992.106V1008.11C193.231 1008.19 193.263 1008.26 193.321 1008.32C193.38 1008.37 193.458 1008.41 193.541 1008.41L210.531 1008.42C210.991 1008.42 211.211 1008.64 211.191 1009.1L211.101 1010.86C211.081 1011.22 210.887 1011.4 210.521 1011.4L193.751 1011.36C193.404 1011.36 193.231 1011.53 193.231 1011.88Z" fill="#A69154"/>
<path d="M762.011 997.596C762.021 994.196 761.441 990.156 756.841 990.836C756.634 990.87 756.527 990.783 756.521 990.576L756.491 989.086C756.484 988.86 756.594 988.743 756.821 988.736C760.741 988.636 763.977 988.673 766.531 988.846C770.471 989.106 770.941 993.596 770.951 996.726C771.024 1008.75 771.034 1020.64 770.981 1032.42C770.981 1032.7 770.834 1032.85 770.541 1032.85L762.491 1032.86C762.177 1032.86 762.021 1032.7 762.021 1032.38C762.007 1020.94 762.004 1009.34 762.011 997.596Z" fill="#A69154"/>
<path d="M300.896 996.542C302.83 998.315 305.681 998.352 307.263 996.625C308.845 994.899 308.559 992.063 306.625 990.29C304.691 988.518 301.841 988.481 300.259 990.207C298.677 991.934 298.962 994.77 300.896 996.542Z" fill="#A69154"/>
<path d="M457.592 996.525C459.516 998.3 462.36 998.348 463.944 996.631C465.528 994.914 465.253 992.083 463.329 990.308C461.405 988.532 458.561 988.485 456.977 990.202C455.393 991.919 455.668 994.75 457.592 996.525Z" fill="#A69154"/>
<path d="M780.281 1004.37L777.511 1004.51C777.418 1004.51 777.325 1004.5 777.238 1004.46C777.151 1004.43 777.071 1004.38 777.003 1004.32C776.935 1004.26 776.881 1004.18 776.842 1004.1C776.804 1004.01 776.783 1003.92 776.781 1003.83L776.731 1002.16C776.717 1001.64 776.964 1001.39 777.471 1001.39H780.451C780.751 1001.39 780.901 1001.23 780.901 1000.93L780.931 995.626C780.931 995.402 781.016 995.184 781.171 995.016L784.121 991.666C784.193 991.582 784.283 991.514 784.385 991.467C784.487 991.421 784.598 991.396 784.711 991.397L789.231 991.366C789.697 991.36 789.931 991.59 789.931 992.056L789.871 1000.91C789.864 1001.22 790.021 1001.38 790.341 1001.38L796.781 1001.39C796.874 1001.39 796.966 1001.4 797.052 1001.44C797.138 1001.48 797.215 1001.53 797.279 1001.6C797.344 1001.66 797.394 1001.74 797.427 1001.83C797.46 1001.91 797.475 1002 797.471 1002.1L797.391 1003.86C797.371 1004.24 797.167 1004.43 796.781 1004.43L790.341 1004.36C790.034 1004.36 789.881 1004.51 789.881 1004.82C789.887 1011.92 789.911 1019.01 789.951 1026.09C789.981 1031.68 794.931 1030.93 798.251 1029.06C798.355 1029 798.472 1028.96 798.591 1028.95C798.711 1028.95 798.83 1028.96 798.942 1029C799.053 1029.05 799.154 1029.11 799.237 1029.2C799.32 1029.28 799.382 1029.38 799.421 1029.5L799.541 1029.84C799.747 1030.43 799.587 1030.89 799.061 1031.23C791.741 1035.82 780.501 1033.99 780.911 1023.08C781.057 1019.1 781.017 1013.02 780.791 1004.84C780.784 1004.5 780.614 1004.35 780.281 1004.37Z" fill="#A69154"/>
<path d="M536.191 1003.93C540.304 1005.72 542.137 1008.6 541.691 1012.57C540.581 1022.5 529.161 1021.09 522.291 1021.75C521.311 1021.84 520.647 1022.18 520.301 1022.77C520.186 1022.97 520.122 1023.19 520.115 1023.42C520.108 1023.65 520.158 1023.87 520.26 1024.08C520.362 1024.28 520.514 1024.46 520.701 1024.59C520.888 1024.72 521.104 1024.8 521.331 1024.83C528.891 1025.69 545.931 1025.05 543.661 1037.86C541.841 1048.11 523.541 1046.74 516.851 1044.76C510.671 1042.93 507.421 1035.21 512.881 1030.45C514.587 1028.96 516.494 1027.93 518.601 1027.37C518.64 1027.36 518.676 1027.34 518.702 1027.31C518.729 1027.28 518.746 1027.24 518.75 1027.2C518.754 1027.16 518.746 1027.11 518.727 1027.08C518.707 1027.04 518.677 1027.01 518.641 1026.99C516.327 1025.71 515.767 1023.85 516.961 1021.42C517.107 1021.12 517.341 1020.94 517.661 1020.87C517.987 1020.79 518.221 1020.64 518.361 1020.43C518.574 1020.11 518.507 1019.88 518.161 1019.74C510.621 1016.42 510.091 1006.24 517.261 1002.59C519.214 1001.6 521.637 1001.06 524.531 1000.97C529.917 1000.8 535.454 1000.75 541.141 1000.81C541.237 1000.81 541.331 1000.83 541.414 1000.88C541.498 1000.93 541.567 1001 541.615 1001.09C541.663 1001.17 541.689 1001.26 541.69 1001.36C541.691 1001.46 541.667 1001.55 541.621 1001.64L541.381 1002.08C541.174 1002.45 540.861 1002.66 540.441 1002.71L536.291 1003.23C536.213 1003.24 536.14 1003.28 536.085 1003.33C536.029 1003.39 535.994 1003.46 535.982 1003.54C535.971 1003.62 535.985 1003.7 536.023 1003.77C536.06 1003.84 536.119 1003.89 536.191 1003.93ZM527.006 1019.01C527.745 1019 528.476 1018.79 529.156 1018.39C529.836 1017.99 530.453 1017.41 530.97 1016.68C531.488 1015.94 531.897 1015.07 532.173 1014.12C532.449 1013.16 532.588 1012.14 532.581 1011.11C532.573 1010.08 532.421 1009.05 532.131 1008.1C531.841 1007.15 531.421 1006.29 530.893 1005.56C530.365 1004.83 529.74 1004.26 529.054 1003.87C528.369 1003.48 527.635 1003.28 526.896 1003.29C526.156 1003.29 525.426 1003.5 524.745 1003.9C524.065 1004.3 523.449 1004.88 522.931 1005.62C522.413 1006.35 522.005 1007.22 521.728 1008.17C521.452 1009.13 521.314 1010.15 521.321 1011.19C521.328 1012.22 521.481 1013.24 521.77 1014.19C522.06 1015.14 522.481 1016.01 523.008 1016.73C523.536 1017.46 524.161 1018.03 524.847 1018.42C525.533 1018.81 526.266 1019.01 527.006 1019.01ZM532.907 1040.73C534.169 1039.19 534.741 1037.19 534.496 1035.17C534.251 1033.15 533.21 1031.27 531.601 1029.95C530.805 1029.3 529.893 1028.8 528.917 1028.49C527.942 1028.17 526.923 1028.05 525.917 1028.13C524.912 1028.2 523.941 1028.47 523.058 1028.93C522.176 1029.38 521.4 1030 520.775 1030.76C519.512 1032.3 518.94 1034.3 519.185 1036.32C519.43 1038.34 520.471 1040.22 522.08 1041.54C522.877 1042.2 523.789 1042.69 524.764 1043.01C525.739 1043.32 526.758 1043.44 527.764 1043.37C528.769 1043.29 529.741 1043.02 530.623 1042.57C531.506 1042.11 532.281 1041.49 532.907 1040.73Z" fill="#A69154"/>
<path d="M232.111 1003.46C239.641 998.946 254.021 999.046 254.461 1010.87C254.741 1018.22 254.841 1025.41 254.761 1032.44C254.754 1032.72 254.611 1032.86 254.331 1032.86L246.231 1032.84C245.937 1032.84 245.791 1032.69 245.791 1032.41C245.864 1021.74 245.851 1014.56 245.751 1010.86C245.571 1004.05 238.881 1002.64 233.871 1005.46C233.617 1005.6 233.491 1005.81 233.491 1006.11L233.481 1032.38C233.481 1032.7 233.321 1032.86 233.001 1032.86L225.001 1032.85C224.681 1032.85 224.521 1032.69 224.521 1032.37C224.507 1025.31 224.531 1018.05 224.591 1010.6C224.611 1007.33 224.251 1003.15 219.641 1003.42C219.194 1003.44 218.984 1003.24 219.011 1002.8L219.051 1002.11C219.063 1001.92 219.143 1001.74 219.276 1001.61C219.409 1001.48 219.585 1001.4 219.771 1001.4C224.301 1001.22 228.671 1000.78 231.341 1003.37C231.574 1003.6 231.831 1003.63 232.111 1003.46Z" fill="#A69154"/>
<path d="M285.671 1003.83C294.901 1008.87 291.911 1019.69 282.001 1020.94C279.291 1021.28 271.941 1021.03 270.011 1022.4C269.811 1022.54 269.658 1022.74 269.57 1022.97C269.482 1023.2 269.464 1023.45 269.517 1023.69C269.57 1023.93 269.693 1024.15 269.869 1024.32C270.046 1024.49 270.269 1024.61 270.511 1024.66C276.291 1025.71 281.581 1024.84 287.531 1027.56C291.951 1029.58 294.111 1033.78 292.911 1038.53C290.671 1047.35 275.171 1046.72 268.521 1045.37C263.561 1044.36 258.931 1041.01 259.601 1035.3C260.121 1030.82 263.701 1028.83 267.711 1027.52C268.171 1027.37 268.217 1027.14 267.851 1026.82C265.351 1024.65 264.521 1022.6 267.751 1020.41C268.077 1020.18 268.061 1019.98 267.701 1019.82C263.291 1017.81 260.831 1013.67 261.781 1008.86C262.931 1003.03 269.081 1000.99 274.481 1000.87C279.861 1000.73 285.154 1000.71 290.361 1000.81C290.881 1000.82 291.091 1001.08 290.991 1001.59L290.911 1001.99C290.872 1002.17 290.777 1002.33 290.639 1002.46C290.501 1002.58 290.327 1002.66 290.141 1002.69L285.781 1003.22C285.114 1003.3 285.077 1003.5 285.671 1003.83ZM276.426 1019.01C277.916 1019 279.34 1018.16 280.383 1016.68C281.427 1015.2 282.005 1013.19 281.991 1011.11C281.983 1010.08 281.831 1009.05 281.542 1008.1C281.253 1007.15 280.833 1006.29 280.306 1005.56C279.779 1004.83 279.155 1004.26 278.471 1003.87C277.786 1003.48 277.054 1003.28 276.316 1003.29C274.825 1003.3 273.402 1004.14 272.358 1005.62C271.314 1007.1 270.736 1009.1 270.751 1011.19C270.758 1012.22 270.91 1013.24 271.2 1014.19C271.489 1015.14 271.909 1016.01 272.436 1016.73C272.963 1017.46 273.586 1018.03 274.271 1018.42C274.955 1018.81 275.688 1019.01 276.426 1019.01ZM282.335 1040.72C283.593 1039.18 284.16 1037.18 283.911 1035.16C283.661 1033.14 282.616 1031.27 281.005 1029.95C279.394 1028.63 277.349 1027.98 275.32 1028.13C273.291 1028.29 271.444 1029.24 270.186 1030.77C268.928 1032.31 268.361 1034.31 268.611 1036.33C268.86 1038.35 269.906 1040.22 271.517 1041.54C273.128 1042.86 275.173 1043.52 277.202 1043.36C279.23 1043.21 281.077 1042.26 282.335 1040.72Z" fill="#A69154"/>
<path d="M325.901 1003.38C334.751 998.316 348.451 999.476 348.581 1012.61C348.654 1019.41 348.694 1026 348.701 1032.36C348.701 1032.67 348.544 1032.83 348.231 1032.83L340.261 1032.85C339.907 1032.85 339.731 1032.67 339.731 1032.32C339.771 1025.72 339.757 1018.9 339.691 1011.86C339.621 1004.65 333.791 1002.14 327.861 1005.4C327.694 1005.49 327.555 1005.62 327.458 1005.78C327.361 1005.95 327.31 1006.14 327.311 1006.33L327.331 1032.17C327.331 1032.58 327.124 1032.79 326.711 1032.8L319.071 1032.86C318.651 1032.86 318.441 1032.66 318.441 1032.24C318.407 1024.61 318.381 1016.73 318.361 1008.6C318.347 1005.06 316.661 1003.32 313.301 1003.38C313.227 1003.38 313.153 1003.36 313.085 1003.34C313.017 1003.31 312.955 1003.26 312.904 1003.21C312.853 1003.16 312.814 1003.09 312.79 1003.02C312.765 1002.95 312.755 1002.88 312.761 1002.81L312.791 1002.4C312.837 1001.78 313.174 1001.45 313.801 1001.42C317.941 1001.22 322.761 1000.79 325.101 1003.26C325.334 1003.51 325.601 1003.55 325.901 1003.38Z" fill="#A69154"/>
<path d="M364.321 1018.8C364.247 1021.32 364.677 1023.74 365.611 1026.08C368.451 1033.18 377.201 1030.73 380.931 1025.8C381.471 1025.08 382.101 1024.99 382.821 1025.54L383.091 1025.75C383.294 1025.9 383.433 1026.13 383.479 1026.38C383.525 1026.64 383.476 1026.9 383.341 1027.12C378.961 1034.21 368.671 1035.08 362.191 1031.22C354.591 1026.7 353.211 1015.16 357.101 1007.94C364.291 994.586 388.911 1000.66 384.841 1017.91C384.767 1018.21 384.574 1018.36 384.261 1018.36L364.821 1018.32C364.501 1018.32 364.334 1018.48 364.321 1018.8ZM364.881 1015.36L375.361 1015.38C375.525 1015.38 375.683 1015.31 375.799 1015.19C375.915 1015.08 375.981 1014.92 375.981 1014.76V1013.61C375.985 1011.01 375.424 1008.52 374.421 1006.68C373.418 1004.84 372.054 1003.81 370.631 1003.81H369.651C368.945 1003.8 368.246 1004.06 367.593 1004.55C366.941 1005.04 366.347 1005.76 365.847 1006.67C365.346 1007.57 364.948 1008.65 364.676 1009.84C364.404 1011.03 364.263 1012.3 364.261 1013.59V1014.74C364.261 1014.9 364.326 1015.06 364.442 1015.17C364.559 1015.29 364.716 1015.36 364.881 1015.36Z" fill="#A69154"/>
<path d="M399.381 1018.76C399.161 1024.46 401.021 1031.32 408.291 1030.3C411.617 1029.83 414.217 1028.26 416.091 1025.6C416.537 1024.96 417.044 1024.91 417.611 1025.43L418.251 1026.01C418.403 1026.15 418.499 1026.34 418.521 1026.54C418.543 1026.75 418.49 1026.96 418.371 1027.13C415.211 1031.71 410.594 1033.81 404.521 1033.41C393.011 1032.65 388.131 1021.87 390.611 1011.85C394.911 994.396 423.451 998.146 419.891 1017.84C419.831 1018.18 419.627 1018.35 419.281 1018.35L399.831 1018.33C399.544 1018.33 399.394 1018.47 399.381 1018.76ZM399.911 1015.35L410.451 1015.43C410.604 1015.43 410.752 1015.37 410.861 1015.26C410.97 1015.15 411.031 1015 411.031 1014.85L411.041 1013.6C411.059 1011.01 410.516 1008.53 409.532 1006.69C408.547 1004.85 407.202 1003.82 405.791 1003.81H404.731C404.032 1003.8 403.338 1004.05 402.689 1004.53C402.04 1005.02 401.449 1005.73 400.948 1006.63C400.448 1007.54 400.048 1008.61 399.772 1009.79C399.496 1010.97 399.35 1012.24 399.341 1013.52L399.331 1014.77C399.331 1014.92 399.392 1015.07 399.501 1015.18C399.609 1015.29 399.757 1015.35 399.911 1015.35Z" fill="#A69154"/>
<path d="M437.021 1006.77C436.977 1006.8 436.942 1006.84 436.918 1006.88C436.893 1006.93 436.881 1006.98 436.881 1007.04L436.951 1032.19C436.951 1032.27 436.934 1032.35 436.903 1032.43C436.871 1032.5 436.825 1032.57 436.766 1032.63C436.708 1032.69 436.638 1032.74 436.562 1032.77C436.485 1032.8 436.403 1032.82 436.321 1032.82H428.551C428.131 1032.82 427.924 1032.6 427.931 1032.18C428.037 1025.04 428.051 1017.68 427.971 1010.11C427.941 1006.92 427.601 1003.15 423.101 1003.45C423.025 1003.45 422.949 1003.44 422.877 1003.42C422.805 1003.39 422.74 1003.35 422.685 1003.29C422.631 1003.24 422.588 1003.17 422.559 1003.1C422.531 1003.03 422.518 1002.95 422.521 1002.88L422.541 1001.9C422.554 1001.57 422.724 1001.4 423.051 1001.4C426.671 1001.27 431.771 1000.62 435.001 1003.41C435.261 1003.63 435.531 1003.64 435.811 1003.44C440.061 1000.36 448.221 998.866 450.751 1004.77C450.877 1005.07 450.807 1005.32 450.541 1005.51L448.141 1007.25C447.867 1007.45 447.601 1007.44 447.341 1007.22C444.101 1004.51 440.661 1004.36 437.021 1006.77Z" fill="#A69154"/>
<path d="M484.051 1006.35L484.041 1032.1C484.041 1032.6 483.787 1032.86 483.281 1032.86L475.781 1032.83C475.68 1032.83 475.58 1032.81 475.487 1032.77C475.395 1032.73 475.31 1032.67 475.24 1032.6C475.169 1032.53 475.113 1032.44 475.076 1032.35C475.038 1032.26 475.019 1032.16 475.021 1032.06C475.107 1024.48 475.127 1016.74 475.081 1008.85C475.061 1005.15 473.434 1003.34 470.201 1003.44C470.121 1003.44 470.041 1003.43 469.967 1003.4C469.892 1003.37 469.825 1003.32 469.769 1003.26C469.714 1003.21 469.671 1003.14 469.644 1003.06C469.616 1002.99 469.605 1002.91 469.611 1002.83L469.661 1001.87C469.674 1001.57 469.831 1001.41 470.131 1001.4C474.341 1001.25 479.331 1000.73 481.851 1003.29C482.097 1003.54 482.374 1003.58 482.681 1003.4C487.134 1000.75 491.941 999.983 497.101 1001.1C503.591 1002.5 505.631 1008.33 505.571 1014.35C505.504 1020.58 505.434 1026.57 505.361 1032.32C505.361 1032.68 505.177 1032.86 504.811 1032.86L497.011 1032.84C496.657 1032.83 496.481 1032.65 496.481 1032.3C496.474 1026.04 496.494 1019.56 496.541 1012.85C496.581 1005.58 491.141 1001.43 484.551 1005.46C484.398 1005.55 484.271 1005.68 484.184 1005.84C484.096 1005.99 484.051 1006.17 484.051 1006.35Z" fill="#A69154"/>
<path d="M644.709 1016.85C644.743 1019.02 644.344 1021.18 643.537 1023.19C642.729 1025.21 641.528 1027.05 640.001 1028.6C638.475 1030.16 636.653 1031.41 634.64 1032.27C632.627 1033.13 630.463 1033.59 628.27 1033.62C623.841 1033.69 619.567 1032.02 616.387 1028.97C613.207 1025.93 611.382 1021.76 611.313 1017.38C611.279 1015.21 611.677 1013.06 612.485 1011.04C613.292 1009.03 614.494 1007.19 616.02 1005.63C617.547 1004.07 619.368 1002.83 621.381 1001.97C623.394 1001.1 625.559 1000.64 627.751 1000.61C632.18 1000.54 636.454 1002.21 639.635 1005.26C642.815 1008.3 644.64 1012.48 644.709 1016.85ZM628.021 1030.68C629.973 1030.68 631.845 1029.25 633.225 1026.7C634.605 1024.16 635.381 1020.71 635.381 1017.11C635.381 1013.51 634.605 1010.06 633.225 1007.51C631.845 1004.97 629.973 1003.54 628.021 1003.54C626.069 1003.54 624.197 1004.97 622.816 1007.51C621.436 1010.06 620.661 1013.51 620.661 1017.11C620.661 1020.71 621.436 1024.16 622.816 1026.7C624.197 1029.25 626.069 1030.68 628.021 1030.68Z" fill="#A69154"/>
<path d="M660.101 1003.34C668.361 998.566 682.791 999.556 682.821 1012.11C682.834 1018.93 682.831 1025.56 682.811 1032C682.804 1032.54 682.534 1032.81 682.001 1032.81L674.551 1032.84C674.004 1032.84 673.734 1032.56 673.741 1032.02C673.834 1025.06 673.787 1018 673.601 1010.86C673.421 1004.04 666.871 1002.44 661.861 1005.57C661.581 1005.75 661.441 1006 661.441 1006.34L661.461 1032.12C661.461 1032.59 661.227 1032.83 660.761 1032.83L653.241 1032.82C652.741 1032.82 652.494 1032.57 652.501 1032.07C652.534 1024.45 652.534 1016.63 652.501 1008.61C652.487 1005.05 650.784 1003.32 647.391 1003.4C647.315 1003.4 647.241 1003.38 647.171 1003.35C647.102 1003.33 647.039 1003.28 646.987 1003.23C646.936 1003.17 646.896 1003.11 646.871 1003.04C646.845 1002.97 646.835 1002.89 646.841 1002.82L646.861 1002.45C646.907 1001.79 647.261 1001.45 647.921 1001.42C651.381 1001.24 656.321 1000.7 659.341 1003.27C659.574 1003.47 659.827 1003.49 660.101 1003.34Z" fill="#A69154"/>
<path d="M714.511 1011.46C713.471 1011.8 712.794 1011.51 712.481 1010.57C710.687 1005.24 707.161 1003.05 701.901 1003.99C696.161 1005.02 696.891 1010.67 701.511 1012.67C707.021 1015.05 719.261 1018.41 716.011 1027.12C713.121 1034.85 694.701 1035.65 690.401 1029.65C689.527 1028.43 689.321 1026.31 689.781 1023.31C689.821 1023.03 689.971 1022.85 690.231 1022.76C690.671 1022.61 691.074 1022.64 691.441 1022.86C691.721 1023.02 691.954 1023.34 692.141 1023.84C694.434 1030.11 698.851 1032.07 705.391 1029.71C707.124 1029.08 707.937 1027.88 707.831 1026.1C707.551 1021.63 696.961 1018.72 694.361 1017.27C686.981 1013.17 687.571 1004.07 696.061 1001.74C701.241 1000.32 706.341 1000.51 711.361 1002.33C715.121 1003.69 715.151 1007.48 715.021 1010.78C715.007 1011.12 714.837 1011.34 714.511 1011.46Z" fill="#A69154"/>
<path d="M821.121 1014.05C821.641 1010.28 820.591 1004.96 816.191 1003.99C812.031 1003.06 809.287 1004.81 807.961 1009.24C807.861 1009.58 807.631 1009.75 807.271 1009.77L804.831 1009.84C804.557 1009.84 804.401 1009.71 804.361 1009.45C802.751 1000.17 812.711 1000.36 819.011 1001.14C825.871 1001.99 829.591 1005.9 830.171 1012.86C830.404 1015.67 830.407 1022.15 830.181 1032.31C830.174 1032.64 830.004 1032.81 829.671 1032.83C826.951 1032.92 824.291 1033.61 822.701 1030.62C822.281 1029.82 821.771 1029.76 821.171 1030.44C815.911 1036.47 801.811 1033.73 801.641 1024.35C801.471 1015.04 813.421 1014.06 820.511 1014.54C820.871 1014.56 821.074 1014.4 821.121 1014.05ZM820.731 1017.47C814.761 1017.13 808.911 1020.07 811.451 1027.16C813.131 1031.86 818.131 1030.39 820.481 1027.24C821.841 1025.41 821.331 1020.26 821.241 1018C821.227 1017.66 821.057 1017.49 820.731 1017.47Z" fill="#A69154"/>
<path d="M846.891 1003.32C853.121 999.556 864.791 999.076 868.381 1006.77C869.181 1008.47 869.574 1011.91 869.561 1017.1C869.547 1022.26 869.571 1027.28 869.631 1032.17C869.632 1032.25 869.617 1032.33 869.586 1032.41C869.555 1032.49 869.508 1032.56 869.45 1032.62C869.391 1032.68 869.321 1032.73 869.244 1032.76C869.167 1032.79 869.084 1032.81 869.001 1032.81L861.251 1032.85C861.068 1032.85 860.892 1032.77 860.763 1032.64C860.633 1032.51 860.561 1032.34 860.561 1032.16C860.674 1022.16 860.661 1015.06 860.521 1010.87C860.301 1004.16 853.871 1002.55 848.811 1005.4C848.65 1005.49 848.517 1005.62 848.423 1005.78C848.33 1005.94 848.281 1006.12 848.281 1006.31L848.271 1031.88C848.268 1032.15 848.159 1032.41 847.968 1032.59C847.777 1032.78 847.519 1032.89 847.251 1032.89L840.231 1032.86C839.604 1032.85 839.291 1032.53 839.291 1031.91C839.364 1019.91 839.347 1011.81 839.241 1007.6C839.161 1004.32 836.851 1003.83 834.181 1003.26C833.821 1003.18 833.637 1002.95 833.631 1002.59C833.624 1002.27 833.731 1001.99 833.951 1001.75C834.111 1001.57 834.361 1001.47 834.701 1001.45C838.271 1001.19 843.181 1000.72 846.081 1003.25C846.334 1003.47 846.604 1003.5 846.891 1003.32Z" fill="#A69154"/>
<path d="M895.291 1003.89C883.441 1001.96 883.931 1019.99 886.851 1026.49C889.691 1032.82 899.201 1030.77 902.681 1025.9C902.885 1025.61 903.192 1025.41 903.539 1025.33C903.886 1025.26 904.248 1025.32 904.551 1025.51L904.891 1025.72C905.016 1025.79 905.124 1025.89 905.209 1026.01C905.293 1026.13 905.352 1026.27 905.381 1026.41C905.41 1026.55 905.409 1026.7 905.378 1026.84C905.347 1026.98 905.287 1027.12 905.201 1027.24C897.881 1037.25 880.941 1034.89 876.991 1023.65C872.811 1011.75 879.611 1000.7 892.841 1000.74C897.281 1000.75 903.831 1000.9 904.541 1006.57C904.647 1007.42 904.737 1009.18 904.811 1011.86C904.812 1011.93 904.798 1012.01 904.768 1012.08C904.739 1012.16 904.696 1012.22 904.641 1012.28C904.586 1012.33 904.52 1012.38 904.448 1012.4C904.376 1012.43 904.298 1012.45 904.221 1012.45H903.231C903.062 1012.44 902.9 1012.38 902.776 1012.27C902.652 1012.15 902.576 1011.99 902.561 1011.83C902.187 1007.26 899.764 1004.61 895.291 1003.89Z" fill="#A69154"/>
<path d="M929.591 1022.11L937.461 1001.98C937.614 1001.58 937.901 1001.38 938.321 1001.38H940.751C941.144 1001.38 941.271 1001.56 941.131 1001.93C936.397 1014.18 931.591 1026.48 926.711 1038.84C924.437 1044.6 920.167 1046.97 913.901 1045.96C913.694 1045.92 913.604 1045.81 913.631 1045.61L913.811 1044.08C913.837 1043.87 913.951 1043.77 914.151 1043.78C920.631 1044.04 923.421 1039.69 924.901 1033.99C924.981 1033.67 924.951 1033.37 924.811 1033.08C918.351 1019.18 914.137 1010.23 912.171 1006.24C911.177 1004.22 909.517 1002.9 907.191 1002.28C906.811 1002.17 906.561 1002.03 906.441 1001.87C906.354 1001.74 906.307 1001.59 906.301 1001.43C906.281 1001.07 906.447 1000.89 906.801 1000.87C912.811 1000.49 918.501 1000.17 921.421 1006.39C923.894 1011.65 926.407 1016.89 928.961 1022.13C929.187 1022.6 929.397 1022.59 929.591 1022.11Z" fill="#A69154"/>
<path d="M299.911 1008.7C299.861 1005.18 298.421 1003.5 294.831 1003.36C294.491 1003.34 294.337 1003.17 294.371 1002.84L294.481 1001.85C294.507 1001.55 294.667 1001.4 294.961 1001.4C302.381 1001.24 309.171 999.386 309.071 1009.85C308.991 1017.55 308.934 1025.03 308.901 1032.29C308.901 1032.44 308.841 1032.58 308.734 1032.69C308.627 1032.8 308.482 1032.86 308.331 1032.86L300.511 1032.84C300.151 1032.84 299.974 1032.66 299.981 1032.31C300.067 1024.61 300.044 1016.74 299.911 1008.7Z" fill="#A69154"/>
<path d="M456.631 1009.36C456.621 1005.26 455.581 1003.82 451.501 1003.28C451.421 1003.27 451.345 1003.24 451.276 1003.2C451.208 1003.16 451.148 1003.1 451.102 1003.04C451.056 1002.97 451.024 1002.9 451.009 1002.82C450.993 1002.74 450.993 1002.66 451.011 1002.59L451.161 1001.94C451.234 1001.6 451.441 1001.43 451.781 1001.42C454.387 1001.3 457.051 1001.32 459.771 1001.48C463.821 1001.7 465.371 1003.41 465.471 1007.35C465.664 1015.83 465.711 1024.14 465.611 1032.28C465.604 1032.64 465.417 1032.83 465.051 1032.83H457.241C456.847 1032.83 456.651 1032.63 456.651 1032.25C456.651 1024.79 456.644 1017.16 456.631 1009.36Z" fill="#A69154"/>
<path d="M744.671 1030.18C737.361 1036.31 724.171 1034.42 723.771 1022.83C723.597 1017.85 723.494 1012.85 723.461 1007.85C723.431 1004.38 721.251 1003.79 718.371 1003.27C718.215 1003.24 718.074 1003.16 717.972 1003.04C717.87 1002.92 717.813 1002.76 717.811 1002.61C717.804 1002.27 717.917 1001.98 718.151 1001.75C718.324 1001.57 718.594 1001.47 718.961 1001.45C726.371 1001 732.571 999.756 732.481 1009.35C732.434 1014.01 732.497 1018.66 732.671 1023.32C733.051 1033.61 744.491 1032 744.511 1023.86C744.524 1016.37 744.517 1009.07 744.491 1001.95C744.484 1001.57 744.667 1001.39 745.041 1001.39H753.031C753.091 1001.39 753.151 1001.4 753.207 1001.42C753.263 1001.44 753.313 1001.48 753.356 1001.52C753.399 1001.56 753.432 1001.61 753.456 1001.67C753.479 1001.73 753.491 1001.79 753.491 1001.85V1032.12C753.491 1032.51 753.297 1032.74 752.911 1032.8C751.911 1032.95 750.771 1032.79 749.721 1032.86C747.131 1033.06 747.061 1031.79 745.541 1030.23C745.261 1029.94 744.971 1029.92 744.671 1030.18Z" fill="#A69154"/>
</svg>
